<svg width="64" height="64" viewBox="0 0 64 64" fill="none" xmlns="http://www.w3.org/2000/svg">
<g clip-path="url(#clip0_48_95)">
<rect width="64" height="64" rx="16" fill="#FE4D14"/>
<path d="M35.2436 13.4422C35.5589 12.4291 36.6359 11.8627 37.649 12.1776C41.2182 13.2883 44.4164 15.3546 46.8961 18.1518C49.3757 20.9488 51.043 24.3708 51.7178 28.0472C52.3926 31.7238 52.0485 35.5151 50.7238 39.0104C49.399 42.5058 47.1438 45.5725 44.2017 47.8782C41.2595 50.184 37.7428 51.6421 34.032 52.093C30.3214 52.5439 26.558 51.9711 23.1493 50.4371C19.7406 48.9031 16.8165 46.4653 14.6931 43.3889C12.5698 40.3125 11.3276 36.7142 11.1022 32.9829C11.0383 31.9237 11.8454 31.0129 12.9046 30.9489C13.9637 30.8851 14.8746 31.6921 14.9386 32.7512C15.1217 35.7828 16.1303 38.7063 17.8555 41.2058C19.5807 43.7054 21.956 45.6866 24.7256 46.9331C27.4952 48.1795 30.5534 48.6446 33.5683 48.2783C36.5833 47.9119 39.441 46.7269 41.8315 44.8535C44.2218 42.9802 46.055 40.4893 47.1314 37.6495C48.2078 34.8095 48.4866 31.7282 47.9383 28.7409C47.39 25.7538 46.0351 22.9736 44.0205 20.701C42.0058 18.4284 39.408 16.75 36.5081 15.8475C35.4951 15.5323 34.9286 14.4553 35.2436 13.4422Z" fill="#B32D00"/>
<path fill-rule="evenodd" clip-rule="evenodd" d="M31.4357 11.1389L31.6382 11.1928L31.8353 11.2665C31.9639 11.3235 32.0865 11.3947 32.2017 11.4785L32.3688 11.6137L32.5223 11.7661C32.668 11.9266 32.7901 12.1115 32.8862 12.3136C33.0145 12.5834 33.0932 12.8798 33.1161 13.1858L33.117 13.1887L34.7081 35.0487C34.7379 35.4471 34.6735 35.8511 34.5215 36.22C34.3685 36.5909 34.1306 36.9142 33.8332 37.1598C33.5359 37.4053 33.1881 37.5659 32.8231 37.6226C32.4602 37.6789 32.0919 37.631 31.7552 37.4862L13.2658 29.5823L13.2636 29.5806C13.0049 29.4693 12.7689 29.3027 12.5716 29.0899C12.3745 28.8773 12.2194 28.6225 12.1135 28.341L12.0437 28.1267C11.9839 27.9078 11.9538 27.6786 11.9551 27.4476L11.9672 27.2176C11.9891 26.9881 12.042 26.7617 12.1239 26.5465C13.7057 22.3864 16.2828 18.7487 19.5767 16.0286C22.8705 13.3085 26.7558 11.6093 30.8107 11.1144L31.0207 11.0995C31.1602 11.0975 31.2992 11.111 31.4357 11.1389ZM30.7586 15.7312C27.5428 15.9481 24.4317 17.2127 21.8264 19.3642C19.2206 21.5163 17.2401 24.4565 16.1381 27.8064L18.3078 28.7326C18.3703 28.5523 18.441 28.3745 18.5214 28.2014C18.8832 27.4229 19.4149 26.7507 20.066 26.2446C20.7167 25.7388 21.4671 25.4149 22.2503 25.3029C23.0339 25.191 23.8262 25.2949 24.5538 25.6041C25.2813 25.9134 25.9233 26.4188 26.4196 27.0746C26.9157 27.7303 27.2516 28.5158 27.3974 29.3601C27.5432 30.2048 27.4938 31.0825 27.2539 31.9127C27.1986 32.1041 27.1326 32.2912 27.0584 32.474L32.1358 34.6442L31.9631 32.2735C31.7709 32.2538 31.5796 32.2228 31.3908 32.1771C30.7505 32.0221 30.1496 31.722 29.628 31.2946C29.1063 30.8669 28.6736 30.3212 28.3597 29.6938C28.0458 29.0663 27.8576 28.3692 27.8051 27.649C27.7527 26.9288 27.8377 26.1996 28.0557 25.5095C28.2736 24.8199 28.6188 24.1838 29.0696 23.6419C29.5206 23.1 30.0674 22.6634 30.6745 22.3615C30.8538 22.2725 31.0377 22.1955 31.2242 22.1311L30.7586 15.7312ZM23.5849 28.1938C23.2451 28.0495 22.8748 28.0012 22.5088 28.0535C22.143 28.1058 21.7921 28.2579 21.4882 28.4942C21.1845 28.7305 20.9377 29.0443 20.7689 29.4076C20.72 29.5127 20.6795 29.6217 20.6448 29.7324L24.7226 31.4744C24.7703 31.3666 24.8135 31.256 24.8466 31.1414C24.9586 30.7536 24.9812 30.3431 24.9131 29.9486C24.845 29.5543 24.6881 29.1867 24.4564 28.8804C24.2246 28.5742 23.9246 28.3382 23.5849 28.1938ZM31.4347 25.0159C31.2428 25.1422 31.0676 25.2987 30.9158 25.4811C30.7053 25.7342 30.5432 26.0311 30.4414 26.3531C30.3396 26.6754 30.2997 27.0171 30.3242 27.3535C30.3488 27.6897 30.438 28.0153 30.5845 28.3083C30.7311 28.601 30.9327 28.8549 31.1761 29.0545C31.3513 29.1982 31.546 29.3096 31.7526 29.3887L31.4347 25.0159Z" fill="#FFFBFA"/>
<path d="M42.2792 14.2551C44.9355 13.3174 47.4017 12.7464 49.4892 12.679C51.6645 12.6089 53.9651 13.0791 55.2829 14.9164C56.4886 16.597 56.3374 18.6872 55.729 20.5448C55.1059 22.4466 53.8785 24.5334 52.2562 26.6635C48.9965 30.9431 43.8591 35.7682 37.6366 40.1861C31.4141 44.604 25.1594 47.8676 20.0347 49.5407C17.4837 50.3734 15.1049 50.8484 13.0984 50.8139C11.1399 50.7801 9.11357 50.2412 7.91271 48.5608L7.68412 48.2095C6.62962 46.4217 6.94746 44.248 7.68213 42.3385C8.43391 40.3849 9.78984 38.2379 11.5591 36.0326C11.8877 37.5678 12.391 39.0524 13.0534 40.4606C12.2307 41.6732 11.6348 42.7698 11.2696 43.7187C10.7151 45.1598 10.8197 45.8867 10.9714 46.2092L11.0377 46.3235L11.0392 46.3259C11.1994 46.5504 11.7066 46.947 13.1648 46.9721C14.5759 46.9963 16.4991 46.6528 18.8425 45.8879C23.5067 44.3651 29.4157 41.3111 35.4124 37.0536C41.4093 32.7958 46.2342 28.2282 49.1996 24.335C50.6894 22.3789 51.6409 20.682 52.0776 19.3492C52.5281 17.9738 52.3183 17.3754 52.162 17.157L52.1606 17.1559C51.9841 16.9099 51.3759 16.4633 49.6125 16.5201C48.5986 16.5529 47.3715 16.7537 45.9625 17.1278C45.5865 16.7578 45.197 16.4002 44.7915 16.0592C43.9985 15.3923 43.157 14.7911 42.2792 14.2551Z" fill="#FFFBFA"/>
</g>
<defs>
<clipPath id="clip0_48_95">
<rect width="64" height="64" rx="16" fill="white"/>
</clipPath>
</defs>
</svg>
