<svg width="185" height="34" viewBox="0 0 185 34" fill="none" xmlns="http://www.w3.org/2000/svg">
<path d="M23.1539 2.99972C23.3599 2.19748 24.1775 1.71359 24.9797 1.91937C27.8063 2.6453 30.381 4.13088 32.4242 6.21451C34.4673 8.29804 35.9015 10.9007 36.572 13.7407C37.2424 16.5808 37.1229 19.5504 36.2272 22.3277C35.3315 25.1051 33.6935 27.5847 31.49 29.4979C29.2864 31.4112 26.6017 32.6861 23.7261 33.1833C20.8506 33.6805 17.8938 33.3815 15.1759 32.3193C12.4579 31.257 10.0823 29.471 8.30599 27.1557C6.52969 24.8404 5.41995 22.0835 5.0978 19.1831C5.00635 18.3597 5.59988 17.6179 6.42325 17.5264C7.24654 17.4351 7.98846 18.0286 8.0799 18.8519C8.34165 21.2084 9.24282 23.4482 10.686 25.3294C12.1293 27.2106 14.059 28.6622 16.2674 29.5253C18.4758 30.3884 20.8785 30.6311 23.2149 30.2271C25.5513 29.8232 27.7329 28.7871 29.5233 27.2326C31.3134 25.6781 32.645 23.664 33.3728 21.4076C34.1006 19.151 34.1971 16.7376 33.6523 14.4299C33.1076 12.1224 31.9421 10.0078 30.2821 8.31495C28.6221 6.6221 26.5307 5.41541 24.2343 4.82556C23.432 4.61951 22.948 3.80201 23.1539 2.99972Z" fill="#67524B"/>
<path fill-rule="evenodd" clip-rule="evenodd" d="M18.7964 0.757777L18.9615 0.775356L19.1246 0.807582C19.2319 0.834959 19.3362 0.873048 19.4361 0.920863L19.5826 0.999965L19.7203 1.09274C19.8528 1.19211 19.9696 1.31125 20.0679 1.44528C20.1992 1.62426 20.2945 1.82732 20.3472 2.04293L20.3482 2.04489L24.0748 17.4521C24.1432 17.7328 24.1386 18.0272 24.0611 18.3056C23.9831 18.5856 23.833 18.8403 23.6275 19.0459C23.422 19.2513 23.1672 19.4015 22.8873 19.4795C22.6088 19.5569 22.3145 19.5607 22.0337 19.4922L6.62847 15.7646L6.62652 15.7636C6.4109 15.7109 6.20687 15.6166 6.02789 15.4853C5.84914 15.3541 5.69849 15.1886 5.58355 14.999L5.50445 14.8535C5.43274 14.7037 5.38313 14.5436 5.35797 14.3789L5.34137 14.2138C5.33253 14.0481 5.34837 13.8814 5.38824 13.7197C6.158 10.5937 7.76805 7.7374 10.0445 5.4609C12.321 3.18451 15.1773 1.57438 18.3033 0.804652L18.4664 0.772426C18.5756 0.756682 18.6862 0.751941 18.7964 0.757777ZM18.7857 4.0986C16.2867 4.58393 13.9887 5.8048 12.188 7.60543C10.3872 9.40644 9.16627 11.7045 8.68121 14.2041L10.4888 14.6406C10.5174 14.5057 10.5527 14.3718 10.5962 14.2402C10.7919 13.6485 11.133 13.115 11.5865 12.6875C12.0398 12.2603 12.592 11.9523 13.1939 11.792C13.7961 11.6316 14.4297 11.6241 15.0357 11.7695C15.6416 11.9149 16.2027 12.2089 16.6666 12.625C17.1302 13.041 17.4828 13.5659 17.6929 14.1523C17.9031 14.739 17.9638 15.3693 17.8697 15.9853C17.848 16.1273 17.8174 16.2674 17.7798 16.4052L22.0103 17.4287L21.606 15.7578C21.453 15.7635 21.2993 15.7611 21.1461 15.748C20.626 15.7035 20.1204 15.5515 19.6627 15.3007C19.2048 15.0497 18.8033 14.7056 18.4859 14.291C18.1684 13.8763 17.9417 13.3992 17.8189 12.8916C17.6961 12.3839 17.6802 11.8557 17.773 11.3418C17.8658 10.8282 18.0647 10.3396 18.357 9.90719C18.6494 9.47476 19.029 9.1075 19.4712 8.83004C19.6018 8.74814 19.7375 8.67439 19.8765 8.60934L18.7857 4.0986ZM14.5689 13.7138C14.2859 13.646 13.9898 13.6497 13.7086 13.7246C13.4274 13.7995 13.1693 13.9439 12.9576 14.1435C12.746 14.3431 12.588 14.592 12.4966 14.8681C12.4702 14.9481 12.4508 15.0299 12.4361 15.1123L15.8336 15.9336C15.8588 15.8518 15.8801 15.7686 15.8931 15.6836C15.9371 15.3959 15.9082 15.1011 15.8101 14.8271C15.712 14.5532 15.5472 14.3075 15.3306 14.1132C15.114 13.919 14.8518 13.7817 14.5689 13.7138ZM20.3687 10.6425C20.2325 10.7522 20.1127 10.8818 20.0142 11.0273C19.8777 11.2292 19.7842 11.4574 19.7408 11.6972C19.6975 11.9373 19.7049 12.1848 19.7623 12.4218C19.8197 12.6588 19.9266 12.8816 20.0748 13.0752C20.223 13.2686 20.4099 13.4287 20.6236 13.5459C20.7774 13.6302 20.9428 13.6895 21.1138 13.7246L20.3687 10.6425Z" fill="#FE4D14"/>
<path d="M30.6073 4.62462C32.7416 4.0946 34.7008 3.83534 36.328 3.93908C38.0237 4.04724 39.7763 4.5847 40.6629 6.11095C41.4742 7.50711 41.2005 9.12013 40.5887 10.5182C39.9623 11.9494 38.8525 13.4793 37.4325 15.0133C34.5793 18.0952 30.2262 21.4605 25.0604 24.4283C19.8945 27.3961 14.79 29.4646 10.6825 30.3815C8.63783 30.8378 6.75373 31.029 5.19713 30.8522C3.67764 30.6795 2.14332 30.1092 1.3358 28.7135L1.18443 28.4235C0.498685 26.9553 0.908228 25.2899 1.62193 23.861C2.35223 22.399 3.56647 20.832 5.10631 19.2506C5.24682 20.4682 5.52694 21.6595 5.93639 22.8033C5.2064 23.6841 4.66125 24.4917 4.3065 25.2018C3.76789 26.2801 3.79481 26.8529 3.88854 27.1149L3.9315 27.2086L3.93248 27.2106C4.04022 27.397 4.40467 27.7431 5.536 27.8717C6.63075 27.996 8.15092 27.8729 10.0292 27.4537C13.7676 26.6192 18.5878 24.6879 23.5663 21.8277C28.5448 18.9675 32.6358 15.7789 35.2313 12.9752C36.5353 11.5666 37.4017 10.3191 37.8407 9.31603C38.2936 8.28091 38.1753 7.80021 38.0702 7.61876L38.0692 7.61779C37.9504 7.41347 37.5112 7.02087 36.1366 6.93322C35.3462 6.88286 34.3777 6.94715 33.2547 7.13244C32.9903 6.81682 32.7143 6.50984 32.4247 6.21447C31.8583 5.63693 31.2494 5.10682 30.6073 4.62462Z" fill="#FE4D14"/>
<path d="M51.914 27.404C51.8993 26.9347 51.892 26.458 51.892 25.974C51.892 25.5047 51.892 25.0353 51.892 24.566C51.892 22.41 51.936 20.32 52.024 18.296C52.112 16.2573 52.2147 14.314 52.332 12.466C51.7453 12.6127 51.254 12.752 50.858 12.884L50 9.364C50.7187 9.144 51.474 8.95333 52.266 8.792C53.0727 8.616 53.8573 8.47667 54.62 8.374C55.3973 8.25667 56.1087 8.176 56.754 8.132C57.414 8.07333 57.9567 8.044 58.382 8.044C58.8367 8.044 59.394 8.08067 60.054 8.154C60.7287 8.22733 61.418 8.38133 62.122 8.616C62.8407 8.836 63.508 9.17333 64.124 9.628C64.74 10.0827 65.2387 10.6987 65.62 11.476C66.016 12.2387 66.214 13.1993 66.214 14.358C66.214 15.5607 65.95 16.5653 65.422 17.372C64.894 18.164 64.1973 18.802 63.332 19.286C62.4667 19.7553 61.5133 20.0927 60.472 20.298C59.4307 20.5033 58.404 20.606 57.392 20.606C56.7467 20.606 56.1307 20.5767 55.544 20.518C55.5293 21.222 55.522 21.9187 55.522 22.608C55.522 23.5467 55.5293 24.4193 55.544 25.226C55.5587 26.018 55.588 26.7147 55.632 27.316L51.914 27.404ZM58.272 11.652C57.8907 11.652 57.4947 11.6667 57.084 11.696C56.688 11.7253 56.292 11.762 55.896 11.806C55.8227 12.5833 55.764 13.4267 55.72 14.336C55.676 15.2453 55.6393 16.1767 55.61 17.13C56.1527 17.174 56.7173 17.196 57.304 17.196C60.824 17.196 62.584 16.1547 62.584 14.072C62.584 13.2507 62.232 12.642 61.528 12.246C60.824 11.85 59.7387 11.652 58.272 11.652Z" fill="#67524B"/>
<path d="M67.0558 11.718C67.0558 11.586 67.0485 11.454 67.0338 11.322C67.0338 11.1753 67.0338 11.014 67.0338 10.838C67.0338 10.3687 67.0485 9.87 67.0778 9.342C67.1072 8.814 67.1365 8.36667 67.1658 8L71.0818 8.066C71.0378 8.56467 70.9865 9.12933 70.9278 9.76C70.8838 10.3907 70.8545 11.0433 70.8398 11.718H67.0558ZM66.9678 27.47C66.9238 26.5607 66.8945 25.5927 66.8798 24.566C66.8652 23.5247 66.8578 22.4833 66.8578 21.442C66.8578 20.078 66.8725 18.7507 66.9018 17.46C66.9312 16.1693 66.9678 14.996 67.0118 13.94L70.7958 13.918C70.7372 14.5927 70.7005 15.4287 70.6858 16.426C70.6712 17.4087 70.6638 18.4427 70.6638 19.528C70.6638 20.5987 70.6712 21.6547 70.6858 22.696C70.7005 23.7373 70.7152 24.6833 70.7298 25.534C70.7592 26.37 70.7812 27.0153 70.7958 27.47H66.9678Z" fill="#67524B"/>
<path d="M72.3286 27.668L71.7786 24.786C71.9693 24.7127 72.1966 24.6467 72.4606 24.588C72.9153 24.2947 73.436 23.906 74.0226 23.422C74.624 22.9233 75.24 22.3807 75.8706 21.794C76.5013 21.2073 77.11 20.628 77.6966 20.056C78.2833 19.4693 78.7966 18.9413 79.2366 18.472C79.6766 18.0027 79.9993 17.636 80.2046 17.372C80.278 17.2693 80.3293 17.196 80.3586 17.152C80.388 17.0933 80.4026 17.0567 80.4026 17.042C80.4026 17.0567 80.3 17.064 80.0946 17.064C79.8893 17.064 79.706 17.064 79.5446 17.064C79.0166 17.064 78.3713 17.108 77.6086 17.196C76.8606 17.2693 76.054 17.3867 75.1886 17.548C74.3233 17.7093 73.458 17.9293 72.5926 18.208L71.9326 14.666C73.4433 14.3727 74.8806 14.1527 76.2446 14.006C77.6233 13.8447 78.9213 13.764 80.1386 13.764C80.608 13.764 81.1066 13.7787 81.6346 13.808C82.1773 13.8373 82.6906 13.9253 83.1746 14.072C83.6586 14.204 84.0546 14.4313 84.3626 14.754C84.6706 15.062 84.8246 15.4947 84.8246 16.052C84.8246 16.448 84.656 16.9393 84.3186 17.526C83.996 18.098 83.534 18.736 82.9326 19.44C82.346 20.1293 81.6566 20.8553 80.8646 21.618C80.0873 22.3807 79.244 23.1433 78.3346 23.906C79.1413 23.862 79.9406 23.84 80.7326 23.84C81.862 23.84 82.8593 23.862 83.7246 23.906C84.59 23.95 85.162 24.0087 85.4406 24.082L85.4626 27.514C85.052 27.4847 84.392 27.4553 83.4826 27.426C82.5733 27.4113 81.5686 27.404 80.4686 27.404C79.442 27.404 78.3933 27.4113 77.3226 27.426C76.2666 27.4553 75.2913 27.4847 74.3966 27.514C73.5166 27.558 72.8273 27.6093 72.3286 27.668Z" fill="#67524B"/>
<path d="M86.9337 27.668L86.3837 24.786C86.5744 24.7127 86.8017 24.6467 87.0657 24.588C87.5204 24.2947 88.041 23.906 88.6277 23.422C89.229 22.9233 89.845 22.3807 90.4757 21.794C91.1064 21.2073 91.715 20.628 92.3017 20.056C92.8884 19.4693 93.4017 18.9413 93.8417 18.472C94.2817 18.0027 94.6044 17.636 94.8097 17.372C94.883 17.2693 94.9344 17.196 94.9637 17.152C94.993 17.0933 95.0077 17.0567 95.0077 17.042C95.0077 17.0567 94.905 17.064 94.6997 17.064C94.4944 17.064 94.311 17.064 94.1497 17.064C93.6217 17.064 92.9764 17.108 92.2137 17.196C91.4657 17.2693 90.659 17.3867 89.7937 17.548C88.9284 17.7093 88.063 17.9293 87.1977 18.208L86.5377 14.666C88.0484 14.3727 89.4857 14.1527 90.8497 14.006C92.2284 13.8447 93.5264 13.764 94.7437 13.764C95.213 13.764 95.7117 13.7787 96.2397 13.808C96.7824 13.8373 97.2957 13.9253 97.7797 14.072C98.2637 14.204 98.6597 14.4313 98.9677 14.754C99.2757 15.062 99.4297 15.4947 99.4297 16.052C99.4297 16.448 99.261 16.9393 98.9237 17.526C98.601 18.098 98.139 18.736 97.5377 19.44C96.951 20.1293 96.2617 20.8553 95.4697 21.618C94.6924 22.3807 93.849 23.1433 92.9397 23.906C93.7464 23.862 94.5457 23.84 95.3377 23.84C96.467 23.84 97.4644 23.862 98.3297 23.906C99.195 23.95 99.767 24.0087 100.046 24.082L100.068 27.514C99.657 27.4847 98.997 27.4553 98.0877 27.426C97.1784 27.4113 96.1737 27.404 95.0737 27.404C94.047 27.404 92.9984 27.4113 91.9277 27.426C90.8717 27.4553 89.8964 27.4847 89.0017 27.514C88.1217 27.558 87.4324 27.6093 86.9337 27.668Z" fill="#67524B"/>
<path d="M106.555 27.668C105.455 27.668 104.457 27.382 103.563 26.81C102.668 26.2527 101.957 25.4973 101.429 24.544C100.915 23.576 100.659 22.498 100.659 21.31C100.659 20.1953 100.864 19.1907 101.275 18.296C101.685 17.3867 102.243 16.6093 102.947 15.964C103.665 15.3187 104.479 14.8273 105.389 14.49C106.298 14.138 107.251 13.962 108.249 13.962C109.085 13.962 109.906 14.0793 110.713 14.314C110.771 14.006 110.823 13.698 110.867 13.39L114.629 14.028C114.526 14.3067 114.423 14.7247 114.321 15.282C114.218 15.8393 114.13 16.4627 114.057 17.152C113.998 17.8413 113.947 18.5307 113.903 19.22C113.859 19.9093 113.837 20.5327 113.837 21.09C113.837 21.5447 113.866 21.992 113.925 22.432C113.998 22.8573 114.145 23.2093 114.365 23.488C114.585 23.752 114.922 23.884 115.377 23.884H115.685L115.135 27.712C114.167 27.712 113.367 27.5433 112.737 27.206C112.106 26.8833 111.6 26.4433 111.219 25.886C110.588 26.59 109.869 27.0593 109.063 27.294C108.256 27.5433 107.42 27.668 106.555 27.668ZM104.267 21.75C104.34 22.454 104.626 23.0187 105.125 23.444C105.638 23.8547 106.283 24.06 107.061 24.06C107.809 24.06 108.432 23.862 108.931 23.466C109.429 23.0553 109.84 22.498 110.163 21.794C110.148 21.5593 110.141 21.3173 110.141 21.068C110.141 20.5547 110.155 20.0267 110.185 19.484C110.214 18.9413 110.251 18.406 110.295 17.878C109.679 17.6433 109.033 17.526 108.359 17.526C107.567 17.526 106.855 17.6873 106.225 18.01C105.609 18.318 105.125 18.7507 104.773 19.308C104.421 19.8653 104.245 20.5107 104.245 21.244C104.245 21.332 104.245 21.42 104.245 21.508C104.245 21.596 104.252 21.6767 104.267 21.75Z" fill="#67524B"/>
<rect x="118.685" y="7" width="66" height="21.3984" rx="6.36856" fill="#67524B"/>
<path d="M125.331 22.6355C125.323 22.394 125.319 22.1487 125.319 21.8996C125.319 21.6581 125.319 21.4165 125.319 21.175C125.319 20.0655 125.342 18.9899 125.387 17.9483C125.433 16.8991 125.485 15.899 125.546 14.948C125.244 15.0235 124.991 15.0952 124.787 15.1631L124.346 13.3516C124.716 13.2384 125.104 13.1402 125.512 13.0572C125.927 12.9666 126.331 12.8949 126.723 12.8421C127.123 12.7817 127.489 12.7402 127.822 12.7176C128.161 12.6874 128.44 12.6723 128.659 12.6723C128.893 12.6723 129.18 12.6911 129.52 12.7289C129.867 12.7666 130.222 12.8459 130.584 12.9666C130.954 13.0799 131.297 13.2535 131.614 13.4874C131.931 13.7214 132.188 14.0384 132.384 14.4385C132.588 14.831 132.69 15.3254 132.69 15.9217C132.69 16.5406 132.554 17.0576 132.282 17.4728C132.011 17.8803 131.652 18.2087 131.207 18.4578C130.761 18.6993 130.271 18.8729 129.735 18.9786C129.199 19.0842 128.671 19.1371 128.15 19.1371C127.818 19.1371 127.501 19.122 127.199 19.0918C127.191 19.4541 127.187 19.8126 127.187 20.1674C127.187 20.6504 127.191 21.0995 127.199 21.5147C127.206 21.9223 127.221 22.2808 127.244 22.5903L125.331 22.6355ZM128.603 14.5291C128.406 14.5291 128.203 14.5366 127.991 14.5517C127.788 14.5668 127.584 14.5857 127.38 14.6083C127.342 15.0084 127.312 15.4424 127.289 15.9103C127.267 16.3783 127.248 16.8576 127.233 17.3482C127.512 17.3709 127.803 17.3822 128.105 17.3822C129.916 17.3822 130.822 16.8463 130.822 15.7745C130.822 15.3518 130.641 15.0385 130.278 14.8348C129.916 14.631 129.358 14.5291 128.603 14.5291Z" fill="#FFF6F3"/>
<path d="M136.712 22.7035C135.965 22.7035 135.372 22.6393 134.935 22.511C134.497 22.3827 134.172 22.2015 133.961 21.9675C133.75 21.7411 133.61 21.4732 133.542 21.1637C133.482 20.8467 133.452 20.507 133.452 20.1447C133.452 19.5409 133.467 18.8503 133.497 18.0728C133.535 17.2954 133.58 16.4613 133.633 15.5707C133.693 14.6725 133.757 13.7441 133.825 12.7855L135.886 12.9893C135.81 13.5705 135.742 14.1668 135.682 14.7781C135.629 15.382 135.584 15.9707 135.546 16.5444C135.508 17.118 135.478 17.6388 135.455 18.1068C135.433 18.5748 135.414 18.9672 135.399 19.2843C135.391 19.5937 135.388 19.7937 135.388 19.8843C135.388 20.1485 135.418 20.3485 135.478 20.4844C135.539 20.6127 135.659 20.6995 135.84 20.7448C136.022 20.7901 136.286 20.8127 136.633 20.8127C137.071 20.8127 137.565 20.7863 138.116 20.7335C138.667 20.6731 139.226 20.5863 139.792 20.4731C140.358 20.3598 140.875 20.224 141.343 20.0655L141.784 22.0128C141.271 22.1411 140.716 22.2581 140.12 22.3638C139.531 22.4695 138.943 22.5525 138.354 22.6129C137.765 22.6733 137.218 22.7035 136.712 22.7035Z" fill="#FFF6F3"/>
<path d="M143.608 22.6808L141.672 22.3185C142.034 20.8542 142.412 19.5296 142.804 18.3445C143.204 17.1595 143.616 16.1443 144.038 15.299C144.461 14.4536 144.891 13.8045 145.329 13.3516C145.774 12.8912 146.22 12.6609 146.665 12.6609C147.563 12.6609 148.39 13.495 149.145 15.1631C149.899 16.8236 150.541 19.2314 151.069 22.3865L149.065 22.6582C148.975 22.16 148.877 21.6505 148.771 21.1297C148.665 20.6014 148.556 20.0881 148.443 19.5899C148.261 19.5824 148.065 19.5786 147.854 19.5786C147.484 19.5786 147.092 19.5862 146.676 19.6013C146.269 19.6164 145.865 19.6428 145.465 19.6805C145.072 19.7107 144.706 19.7447 144.367 19.7824C144.223 20.2655 144.084 20.7561 143.948 21.2543C143.819 21.7449 143.706 22.2204 143.608 22.6808ZM145.691 16.0688C145.525 16.4236 145.303 16.9972 145.023 17.7898C145.348 17.752 145.691 17.7256 146.054 17.7105C146.416 17.6879 146.771 17.6765 147.118 17.6765C147.412 17.6765 147.695 17.6841 147.967 17.6992C147.861 17.3142 147.759 16.9708 147.661 16.6689C147.571 16.367 147.488 16.1292 147.412 15.9556C147.254 15.548 147.114 15.2612 146.993 15.0952C146.873 14.9216 146.748 14.8348 146.62 14.8348C146.484 14.8348 146.348 14.9253 146.212 15.1065C146.076 15.2801 145.903 15.6009 145.691 16.0688Z" fill="#FFF6F3"/>
<path d="M151.524 22.7035C151.524 21.526 151.539 20.4655 151.569 19.522C151.607 18.571 151.652 17.7067 151.705 16.9293C151.766 16.1443 151.83 15.4159 151.898 14.7442C151.973 14.0649 152.045 13.4157 152.113 12.7968L154.06 12.8761C154.03 13.1101 153.996 13.3629 153.958 13.6346C154.215 13.9818 154.494 14.3781 154.796 14.8234C155.105 15.2688 155.419 15.7405 155.736 16.2387C156.06 16.7293 156.377 17.2237 156.687 17.7218C156.996 18.2125 157.291 18.6842 157.57 19.1371C157.849 19.5824 158.094 19.9824 158.306 20.3372C158.359 19.8164 158.385 19.0842 158.385 18.1407C158.385 17.6577 158.378 17.1595 158.362 16.6463C158.347 16.133 158.328 15.6424 158.306 15.1744C158.283 14.6989 158.253 14.2762 158.215 13.9064C158.177 13.529 158.136 13.2346 158.091 13.0232L160.219 12.7628C160.234 13.1327 160.242 13.6195 160.242 14.2234C160.249 14.8197 160.253 15.4537 160.253 16.1254C160.253 16.7217 160.249 17.3218 160.242 17.9256C160.234 18.5219 160.219 19.0729 160.197 19.5786C160.174 20.0843 160.14 20.5032 160.095 20.8354C160.012 21.4845 159.846 21.9638 159.597 22.2732C159.347 22.5827 158.996 22.7374 158.544 22.7374C158.174 22.7374 157.834 22.6091 157.525 22.3525C157.223 22.0959 156.894 21.6732 156.54 21.0844C156.298 20.6769 156.015 20.2089 155.69 19.6805C155.373 19.1446 155.041 18.5974 154.694 18.0388C154.354 17.4803 154.026 16.9482 153.709 16.4425C153.649 17.3256 153.603 18.2087 153.573 19.0918C153.543 19.9673 153.528 20.7599 153.528 21.4694C153.528 21.6958 153.528 21.9072 153.528 22.1034C153.528 22.3072 153.532 22.4959 153.539 22.6695L151.524 22.7035Z" fill="#FFF6F3"/>
<path d="M164.986 22.7148C164.413 22.7148 163.895 22.6733 163.435 22.5903C162.982 22.5148 162.597 22.3638 162.28 22.1374C161.963 21.9185 161.722 21.5939 161.556 21.1637C161.39 20.7335 161.307 20.1711 161.307 19.4767C161.307 18.971 161.333 18.4464 161.386 17.903C161.439 17.3595 161.503 16.835 161.578 16.3292C161.661 15.816 161.741 15.3593 161.816 14.9593C161.665 14.9819 161.537 15.0046 161.431 15.0272L161.216 13.227C161.586 13.1591 162.012 13.1025 162.495 13.0572C162.986 13.0044 163.503 12.9591 164.046 12.9214C164.597 12.8836 165.145 12.8572 165.688 12.8421C166.232 12.8195 166.741 12.8081 167.217 12.8081C167.594 12.8081 167.937 12.8157 168.247 12.8308C168.564 12.8383 168.824 12.8534 169.028 12.8761L168.938 14.7668C168.734 14.7291 168.458 14.7027 168.111 14.6876C167.764 14.6649 167.375 14.6536 166.945 14.6536C166.439 14.6536 165.899 14.6649 165.326 14.6876C164.752 14.7102 164.205 14.7366 163.684 14.7668C163.624 15.0838 163.571 15.4084 163.526 15.7405C163.48 16.0726 163.439 16.4009 163.401 16.7255C163.839 16.6651 164.318 16.6198 164.839 16.5896C165.367 16.5519 165.892 16.5255 166.413 16.5104C166.934 16.4877 167.402 16.4764 167.817 16.4764C168.058 16.4764 168.273 16.4802 168.462 16.4877C168.651 16.4877 168.805 16.4953 168.926 16.5104L168.881 18.3672C168.783 18.3596 168.647 18.3559 168.473 18.3559C168.307 18.3483 168.111 18.3445 167.885 18.3445C167.56 18.3445 167.198 18.3521 166.798 18.3672C166.398 18.3747 165.982 18.3898 165.552 18.4125C165.13 18.4276 164.718 18.4502 164.318 18.4804C163.918 18.503 163.556 18.5332 163.231 18.571C163.201 18.9937 163.186 19.3333 163.186 19.5899C163.186 19.9598 163.235 20.2315 163.333 20.4051C163.431 20.5787 163.594 20.6919 163.82 20.7448C164.054 20.7901 164.36 20.8127 164.737 20.8127C165.409 20.8127 166.13 20.7561 166.9 20.6429C167.677 20.5297 168.443 20.3523 169.198 20.1108L169.322 22.0808C168.417 22.3298 167.594 22.4959 166.854 22.5789C166.122 22.6695 165.499 22.7148 164.986 22.7148Z" fill="#FFF6F3"/>
<path d="M173.397 22.7148C173.344 22.0581 173.306 21.4203 173.284 20.8014C173.269 20.1825 173.261 19.5975 173.261 19.0465C173.261 18.1332 173.28 17.3142 173.318 16.5896C173.355 15.8575 173.393 15.2272 173.431 14.6989C172.782 14.7366 172.151 14.7857 171.54 14.8461C170.929 14.9065 170.363 14.9857 169.842 15.0838L169.864 13.1931C170.748 13.0346 171.653 12.9214 172.582 12.8534C173.51 12.7779 174.438 12.7402 175.367 12.7402C176.031 12.7402 176.665 12.7553 177.269 12.7855C177.88 12.8157 178.465 12.861 179.024 12.9214L179.012 14.88C178.484 14.797 177.91 14.7404 177.292 14.7102C176.68 14.6725 176.054 14.6536 175.412 14.6536C175.374 15.1669 175.34 15.7405 175.31 16.3745C175.28 17.001 175.265 17.6728 175.265 18.3898C175.265 19.0314 175.28 19.7069 175.31 20.4164C175.348 21.126 175.393 21.8732 175.446 22.6582L173.397 22.7148Z" fill="#FFF6F3"/>
</svg>
