<svg width="128" height="28" viewBox="0 0 128 28" fill="none" xmlns="http://www.w3.org/2000/svg">
<path d="M0.119545 19.7015C-0.109209 19.3693 0.000516504 18.9254 0.361733 18.7216L9.04762 13.8219L0.361733 8.92217C0.000516117 8.7184 -0.109209 8.27445 0.119545 7.94226L2.36871 4.67607C2.59946 4.34099 3.08149 4.25439 3.42779 4.4858L11.1082 9.61832L10.768 0.725115C10.7528 0.328924 11.091 0 11.5134 0H15.4866C15.909 0 16.2472 0.328925 16.232 0.725117L15.8918 9.61832L23.5722 4.4858C23.9185 4.25439 24.4005 4.34099 24.6313 4.67607L26.8805 7.94226C27.1092 8.27445 26.9995 8.7184 26.6383 8.92217L17.9524 13.8219L26.6383 18.7216C26.9995 18.9254 27.1092 19.3693 26.8805 19.7015L24.6313 22.9677C24.4005 23.3028 23.9185 23.3894 23.5722 23.158L15.8918 18.0254L16.233 27.2758C16.2476 27.6716 15.9096 28 15.4876 28H11.5124C11.0904 28 10.7524 27.6716 10.767 27.2758L11.1082 18.0254L3.42779 23.158C3.08149 23.3894 2.59946 23.3028 2.36871 22.9677L0.119545 19.7015Z" fill="#FE4D14"/>
<path d="M118.7 22.64V15.608L112.796 5.35999H116.612L120.356 11.864L124.1 5.35999H127.916L122.012 15.608V22.64H118.7Z" fill="#67524B"/>
<path d="M99.9491 22.64V5.35999H107.245C107.413 5.35999 107.637 5.36799 107.917 5.38399C108.205 5.39199 108.461 5.41599 108.685 5.45599C109.717 5.61599 110.561 5.95599 111.217 6.47598C111.881 6.99599 112.369 7.65199 112.681 8.44398C112.993 9.22799 113.149 10.104 113.149 11.072C113.149 12.52 112.789 13.76 112.069 14.792C111.349 15.816 110.221 16.448 108.685 16.688L107.245 16.784H103.213V22.64H99.9491ZM109.693 22.64L106.285 15.608L109.645 14.96L113.389 22.64H109.693ZM103.213 13.736H107.101C107.269 13.736 107.453 13.728 107.653 13.712C107.853 13.696 108.037 13.664 108.205 13.616C108.645 13.496 108.985 13.296 109.225 13.016C109.465 12.728 109.629 12.412 109.717 12.068C109.813 11.716 109.861 11.384 109.861 11.072C109.861 10.76 109.813 10.432 109.717 10.088C109.629 9.73599 109.465 9.41999 109.225 9.13999C108.985 8.85199 108.645 8.64799 108.205 8.52799C108.037 8.47999 107.853 8.44799 107.653 8.43199C107.453 8.41599 107.269 8.40798 107.101 8.40798H103.213V13.736Z" fill="#67524B"/>
<path d="M83.6647 22.64V5.35999H86.9767L94.4887 16.88V5.35999H97.8007V22.64H94.4887L86.9767 11.12V22.64H83.6647Z" fill="#67524B"/>
<path d="M67.8257 22.64V5.35999H73.4177C73.5537 5.35999 73.8337 5.36399 74.2577 5.37199C74.6817 5.37999 75.0897 5.40799 75.4817 5.45599C76.8737 5.62399 78.0537 6.10799 79.0217 6.90798C79.9897 7.70798 80.7257 8.72399 81.2297 9.95599C81.7337 11.188 81.9857 12.536 81.9857 14C81.9857 15.464 81.7337 16.812 81.2297 18.044C80.7257 19.276 79.9897 20.292 79.0217 21.092C78.0537 21.892 76.8737 22.376 75.4817 22.544C75.0897 22.592 74.6817 22.62 74.2577 22.628C73.8337 22.636 73.5537 22.64 73.4177 22.64H67.8257ZM71.1377 19.568H73.4177C73.6337 19.568 73.9257 19.564 74.2937 19.556C74.6617 19.54 74.9937 19.504 75.2897 19.448C76.0417 19.296 76.6537 18.944 77.1257 18.392C77.6057 17.84 77.9577 17.176 78.1817 16.4C78.4137 15.624 78.5297 14.824 78.5297 14C78.5297 13.136 78.4097 12.316 78.1697 11.54C77.9377 10.764 77.5817 10.108 77.1017 9.57198C76.6217 9.03599 76.0177 8.69599 75.2897 8.55199C74.9937 8.48799 74.6617 8.45199 74.2937 8.44398C73.9257 8.43599 73.6337 8.43199 73.4177 8.43199H71.1377V19.568Z" fill="#67524B"/>
<path d="M52.9475 22.64V5.35999H60.2435C60.4115 5.35999 60.6355 5.36799 60.9155 5.38399C61.2035 5.39199 61.4595 5.41599 61.6835 5.45599C62.7155 5.61599 63.5595 5.95599 64.2155 6.47598C64.8795 6.99599 65.3675 7.65199 65.6795 8.44398C65.9915 9.22799 66.1475 10.104 66.1475 11.072C66.1475 12.52 65.7875 13.76 65.0675 14.792C64.3475 15.816 63.2195 16.448 61.6835 16.688L60.2435 16.784H56.2115V22.64H52.9475ZM62.6915 22.64L59.2835 15.608L62.6435 14.96L66.3875 22.64H62.6915ZM56.2115 13.736H60.0995C60.2675 13.736 60.4515 13.728 60.6515 13.712C60.8515 13.696 61.0355 13.664 61.2035 13.616C61.6435 13.496 61.9835 13.296 62.2235 13.016C62.4635 12.728 62.6275 12.412 62.7155 12.068C62.8115 11.716 62.8595 11.384 62.8595 11.072C62.8595 10.76 62.8115 10.432 62.7155 10.088C62.6275 9.73599 62.4635 9.41999 62.2235 9.13999C61.9835 8.85199 61.6435 8.64799 61.2035 8.52799C61.0355 8.47999 60.8515 8.44799 60.6515 8.43199C60.4515 8.41599 60.2675 8.40798 60.0995 8.40798H56.2115V13.736Z" fill="#67524B"/>
<path d="M43.376 23C41.648 23 40.156 22.624 38.9 21.872C37.652 21.12 36.688 20.068 36.008 18.716C35.336 17.364 35 15.792 35 14C35 12.208 35.336 10.636 36.008 9.284C36.688 7.932 37.652 6.88 38.9 6.128C40.156 5.376 41.648 5 43.376 5C45.104 5 46.592 5.376 47.84 6.128C49.096 6.88 50.06 7.932 50.732 9.284C51.412 10.636 51.752 12.208 51.752 14C51.752 15.792 51.412 17.364 50.732 18.716C50.06 20.068 49.096 21.12 47.84 21.872C46.592 22.624 45.104 23 43.376 23ZM43.376 19.928C44.472 19.944 45.384 19.708 46.112 19.22C46.84 18.732 47.384 18.04 47.744 17.144C48.112 16.248 48.296 15.2 48.296 14C48.296 12.8 48.112 11.76 47.744 10.88C47.384 10 46.84 9.316 46.112 8.828C45.384 8.34 44.472 8.088 43.376 8.072C42.28 8.056 41.368 8.292 40.64 8.78C39.912 9.268 39.364 9.96 38.996 10.856C38.636 11.752 38.456 12.8 38.456 14C38.456 15.2 38.636 16.24 38.996 17.12C39.364 18 39.912 18.684 40.64 19.172C41.368 19.66 42.28 19.912 43.376 19.928Z" fill="#67524B"/>
</svg>
