<svg width="986" height="988" viewBox="0 0 986 988" fill="none" xmlns="http://www.w3.org/2000/svg">
<path d="M418.703 63.6255C418.213 60.76 417.75 57.5899 417.313 54.1151C416.892 50.7675 416.508 47.2 416.161 43.4127C415.814 39.6253 415.526 35.7876 415.295 31.8995C415.059 27.969 414.921 24.1338 414.881 20.3939C414.225 20.6487 413.589 20.9007 412.975 21.1502C412.398 21.3519 411.865 21.5695 411.378 21.8029L406.866 12.104C416.817 8.39932 425.204 6.11808 432.026 5.2603C445.883 3.51809 453.474 7.92268 454.801 18.4741C455.424 23.4319 454.267 27.5806 451.329 30.92C448.387 34.2171 443.764 36.6493 437.461 38.2165C441.727 40.9946 445.943 43.1979 450.108 44.8265C454.31 46.4074 458.514 47.6651 462.721 48.5997L456.904 58.8225C454.557 58.2997 452.064 57.4725 449.425 56.3408C446.786 55.209 444.15 53.9263 441.516 52.4926C438.882 51.0589 436.351 49.5907 433.924 48.088C431.539 46.58 429.403 45.1698 427.517 43.8574C427.842 46.7866 428.172 49.7582 428.508 52.7721C428.881 55.7384 429.268 58.8106 429.667 61.9887L429.334 62.418C427.723 62.6205 425.986 62.8389 424.122 63.0734C422.305 63.3448 420.663 63.6374 419.196 63.951L418.703 63.6255ZM432.725 15.4387C431.538 15.5878 430.317 15.8059 429.062 16.0929C427.801 16.3374 426.546 16.6244 425.296 16.9537C425.425 19.3481 425.572 21.7185 425.738 24.0651C425.899 26.3694 426.081 28.6709 426.284 30.9698C428.143 30.693 430.142 30.334 432.282 29.8928C434.459 29.4039 436.487 28.7614 438.367 27.9655C440.242 27.1272 441.725 26.0799 442.815 24.8236C443.948 23.562 444.399 22.0202 444.17 20.198C443.904 18.0793 442.841 16.6418 440.981 15.8856C439.121 15.1295 436.369 14.9805 432.725 15.4387Z" fill="#FF6837"/>
<path d="M385.454 71.0625C381.567 72.0661 377.844 72.2554 374.286 71.6301C370.739 71.0463 367.482 69.792 364.515 67.8675C361.548 65.9429 359.028 63.528 356.954 60.6228C354.881 57.7176 353.38 54.4662 352.451 50.8685C351.597 47.5603 351.255 44.186 351.425 40.7456C351.585 37.2639 352.342 33.9588 353.695 30.8304C355.038 27.6607 357.058 24.8898 359.753 22.5176C362.49 20.1348 365.988 18.3935 370.248 17.2937C374.673 16.1513 378.716 15.9234 382.378 16.61C386.029 17.2552 389.235 18.5668 391.995 20.5447C394.755 22.5227 397.063 24.9703 398.919 27.8875C400.775 30.8048 402.136 33.9381 403 37.2877C404.036 41.2989 404.387 45.1341 404.052 48.7933C403.718 52.4524 402.775 55.8055 401.224 58.8526C399.662 61.8582 397.543 64.4124 394.866 66.5151C392.189 68.6178 389.051 70.1336 385.454 71.0625ZM382.779 60.7037C385.26 60.0631 387.401 58.8709 389.2 57.1272C390.989 55.3421 392.188 52.9814 392.797 50.0452C393.406 47.109 393.172 43.5526 392.093 39.376C391.164 35.7784 389.698 33.0032 387.694 31.0505C385.69 29.0977 383.428 27.8514 380.906 27.3114C378.385 26.7715 375.904 26.8164 373.465 27.4464C370.694 28.1617 368.486 29.2612 366.84 30.7448C365.194 32.2284 364.011 33.9674 363.291 35.9618C362.56 37.9149 362.213 39.9893 362.251 42.185C362.288 44.3808 362.59 46.5745 363.156 48.7662C363.711 50.9165 364.653 52.8567 365.982 54.5867C367.3 56.2754 368.855 57.6826 370.645 58.8082C372.466 59.8819 374.419 60.6127 376.504 61.0006C378.579 61.3472 380.67 61.2482 382.779 60.7037Z" fill="#FF6837"/>
<path d="M314.158 95.4074C313.946 94.9861 313.737 94.5173 313.534 94.0009C313.33 93.4845 313.094 92.8887 312.827 92.2134C312.153 90.5053 311.392 88.4638 310.546 86.0888C309.684 83.6741 308.807 81.1046 307.915 78.3804C307.007 75.6165 306.099 72.8527 305.191 70.0888C304.267 67.2851 303.391 64.6007 302.561 62.0354C301.772 59.4545 301.064 57.1395 300.438 55.0906C299.674 55.7139 299.002 56.278 298.421 56.783L292.918 47.3848C296.904 44.3408 300.699 41.7402 304.301 39.5828C307.942 37.4097 311.332 35.7034 314.471 34.464C320.866 31.9381 326.23 31.2199 330.564 32.3094C334.897 33.3989 337.974 36.2476 339.794 40.8554C340.829 43.4771 341.124 45.9092 340.678 48.1517C340.216 50.3544 339.16 52.4476 337.51 54.431C343.709 55.0131 347.978 58.2635 350.316 64.1822C351.351 66.8039 351.725 69.2046 351.438 71.3843C351.175 73.5087 350.501 75.4052 349.415 77.0739C348.329 78.7426 347.034 80.1724 345.53 81.3634C344.081 82.5785 342.634 83.5636 341.187 84.3186C339.796 85.0977 338.683 85.652 337.849 85.9815C335.783 86.7973 333.5 87.4694 331 87.9979C328.499 88.5263 325.98 88.8326 323.441 88.9167C323.755 89.7111 324.053 90.4659 324.336 91.1809L314.158 95.4074ZM318.639 44.3204C317.209 44.8852 315.731 45.5608 314.205 46.3473C312.703 47.0783 311.232 47.8888 309.792 48.7787C310.699 51.7726 311.795 55.2431 313.078 59.1904C313.61 59.0261 314.134 58.842 314.651 58.6381C315.207 58.4184 315.763 58.1988 316.319 57.9791C326.806 53.8372 331.202 49.6213 329.508 45.3312C328.943 43.9012 327.689 43.1106 325.747 42.9594C323.829 42.7528 321.459 43.2065 318.639 44.3204ZM321.408 66.8521C320.574 67.1816 319.72 67.5189 318.846 67.8641C318.012 68.1935 317.165 68.5507 316.307 68.9356C316.918 70.7147 317.529 72.4939 318.14 74.2731C318.79 76.0366 319.413 77.788 320.009 79.5275C322.5 79.3242 324.881 78.9578 327.151 78.4284C329.406 77.8593 331.308 77.2687 332.857 76.6569C336.154 75.3547 338.361 74.024 339.477 72.6647C340.578 71.2657 340.759 69.6328 340.022 67.7658C339.112 65.4619 337.043 64.2355 333.816 64.0867C330.628 63.9221 326.492 64.8439 321.408 66.8521Z" fill="#FF6837"/>
<path d="M273.128 117.015L262.516 120.419C260.38 112.155 258.696 104.546 257.462 97.5907C256.266 90.6155 255.583 84.4553 255.413 79.11C255.243 73.7648 255.639 69.3761 256.6 65.9441C257.578 62.4542 259.176 60.1103 261.393 58.9124C265.864 56.4963 272.222 58.4249 280.466 64.6984C288.69 70.9343 298.361 81.1946 309.478 95.4793L300.233 102.222C298.442 99.9863 296.583 97.714 294.656 95.4056C292.709 93.0597 290.783 90.7991 288.88 88.6237C287.958 89.0734 286.971 89.5826 285.919 90.151C284.077 91.1459 282.144 92.2393 280.118 93.4311C278.13 94.6026 276.19 95.8204 274.301 97.0843C272.428 98.2904 270.697 99.4442 269.108 100.546C269.693 103.336 270.318 106.154 270.981 108.999C271.662 111.787 272.378 114.459 273.128 117.015ZM265.713 78.4961C265.84 80.7088 266.275 84.1633 267.016 88.8598C268.531 87.7989 270.169 86.7436 271.932 85.6939C273.675 84.6066 275.41 83.596 277.139 82.662C278.604 81.8702 280.033 81.1464 281.427 80.4906C279.865 78.8586 278.434 77.4231 277.133 76.1841C275.87 74.9247 274.818 73.9645 273.975 73.3033C272.089 71.7007 270.623 70.6485 269.575 70.1467C268.507 69.6074 267.653 69.5103 267.015 69.8555C266.338 70.2209 265.906 71.0373 265.716 72.3045C265.507 73.5342 265.506 75.598 265.713 78.4961Z" fill="#FF6837"/>
<path d="M245.75 135.227C242.813 137.288 239.779 138.764 236.648 139.656C233.518 140.547 230.436 140.988 227.402 140.977C224.379 140.906 221.527 140.559 218.847 139.936L218.242 127.918C219.53 128.788 221.079 129.397 222.888 129.745C224.732 130.068 226.666 130.147 228.688 129.981C230.71 129.814 232.679 129.424 234.596 128.81C236.548 128.171 238.293 127.312 239.831 126.233C242.139 124.614 243.717 122.959 244.565 121.268C245.389 119.543 245.36 118.05 244.477 116.792C243.79 115.813 242.911 115.229 241.841 115.041C240.78 114.794 239.713 114.76 238.639 114.94C237.576 115.06 236.654 115.159 235.874 115.236C235.307 115.321 234.317 115.546 232.904 115.911C231.501 116.217 229.934 116.586 228.202 117.018C226.471 117.45 224.834 117.868 223.291 118.272C221.724 118.641 220.481 118.913 219.561 119.089C212.708 120.401 207.564 118.61 204.131 113.715C203.027 112.141 202.245 110.394 201.785 108.474C201.335 106.494 201.298 104.433 201.673 102.292C202.049 100.15 202.959 98.0253 204.401 95.9176C205.844 93.8098 207.929 91.7994 210.657 89.8863C213.628 87.8015 216.501 86.2819 219.275 85.3275C222.024 84.338 224.616 83.7196 227.051 83.4723C229.521 83.2004 231.765 83.1649 233.784 83.3658L234.625 94.8271C228.046 93.7036 222.309 94.8587 217.414 98.2925C215.351 99.7396 213.937 101.071 213.172 102.285C212.418 103.441 212.044 104.433 212.052 105.262C212.071 106.032 212.202 106.592 212.448 106.941C212.865 107.536 213.491 107.983 214.328 108.283C215.199 108.559 216.637 108.489 218.642 108.074C219.467 107.912 220.552 107.673 221.895 107.357C223.248 106.981 224.744 106.584 226.381 106.166C228.053 105.724 229.714 105.341 231.366 105.017C233.027 104.634 234.579 104.355 236.02 104.178C237.769 103.994 239.664 103.944 241.704 104.025C243.743 104.107 245.745 104.581 247.709 105.447C249.683 106.253 251.418 107.723 252.914 109.856C253.822 111.149 254.583 112.754 255.197 114.671C255.787 116.553 255.972 118.64 255.754 120.932C255.536 123.224 254.662 125.585 253.132 128.014C251.602 130.444 249.141 132.848 245.75 135.227Z" fill="#FF6837"/>
<path d="M194.125 176.205C191.212 178.968 188.049 180.939 184.634 182.118C181.249 183.328 177.792 183.811 174.264 183.568C170.736 183.324 167.361 182.434 164.138 180.9C160.916 179.365 158.026 177.25 155.469 174.554C153.117 172.075 151.182 169.29 149.662 166.199C148.113 163.077 147.171 159.82 146.837 156.428C146.474 153.004 146.896 149.602 148.103 146.22C149.341 142.808 151.555 139.589 154.746 136.561C158.062 133.416 161.487 131.255 165.022 130.079C168.528 128.873 171.968 128.465 175.341 128.855C178.714 129.246 181.92 130.267 184.958 131.918C187.996 133.569 190.705 135.649 193.086 138.159C195.937 141.164 198.104 144.348 199.587 147.71C201.069 151.072 201.871 154.461 201.993 157.878C202.085 161.264 201.471 164.526 200.15 167.663C198.828 170.801 196.82 173.648 194.125 176.205ZM186.761 168.444C188.62 166.68 189.913 164.6 190.641 162.202C191.339 159.773 191.243 157.127 190.351 154.264C189.46 151.401 187.53 148.405 184.561 145.275C182.004 142.58 179.375 140.864 176.676 140.129C173.976 139.393 171.393 139.401 168.926 140.151C166.459 140.902 164.312 142.145 162.484 143.879C160.408 145.848 159.01 147.881 158.291 149.977C157.571 152.073 157.38 154.167 157.717 156.261C158.026 158.323 158.729 160.305 159.827 162.207C160.925 164.109 162.253 165.881 163.811 167.523C165.339 169.134 167.104 170.374 169.105 171.242C171.077 172.08 173.119 172.556 175.23 172.672C177.344 172.728 179.406 172.419 181.418 171.747C183.4 171.044 185.181 169.943 186.761 168.444Z" fill="#FF6837"/>
<path d="M164.495 205.831C162.613 204.603 160.41 203.03 157.885 201.112C155.389 199.161 152.714 196.994 149.862 194.61C147.038 192.194 144.194 189.703 141.332 187.138C137.738 183.917 134.296 180.718 131.007 177.541C127.718 174.364 124.899 171.494 122.551 168.931L130.561 160.28C132.505 162.654 134.919 165.304 137.801 168.231C140.712 171.127 144.108 174.313 147.988 177.79C151.932 181.325 155.949 184.81 160.038 188.245C164.157 191.649 167.955 194.738 171.434 197.511L164.495 205.831Z" fill="#FF6837"/>
<path d="M142.206 232.45C139.533 235.997 136.652 238.505 133.565 239.975C130.512 241.471 127.409 242.181 124.258 242.104C121.132 241.994 118.114 241.35 115.204 240.173C112.294 238.995 109.646 237.507 107.258 235.707C104.428 233.573 101.978 231.005 99.9102 228.001C97.8421 224.998 96.3767 221.727 95.5143 218.189C94.6775 214.616 94.6183 210.935 95.3367 207.144C96.0808 203.319 97.8541 199.548 100.656 195.831C103.022 192.693 105.552 190.295 108.247 188.636C110.907 186.951 113.515 185.762 116.071 185.068C118.618 184.314 120.84 183.85 122.737 183.675L124.822 195.276C122.977 195.382 121.149 195.608 119.337 195.954C117.551 196.266 115.798 196.923 114.079 197.927C112.359 198.931 110.69 200.507 109.07 202.655C107.322 204.974 106.244 207.291 105.837 209.604C105.396 211.892 105.476 214.092 106.077 216.203C106.678 218.315 107.655 220.282 109.009 222.105C110.388 223.893 111.999 225.482 113.84 226.87C116.023 228.515 118.305 229.674 120.686 230.346C123.094 230.985 125.413 230.995 127.644 230.377C129.9 229.724 131.864 228.29 133.535 226.073C135.592 223.345 136.658 220.619 136.733 217.894C136.808 215.169 135.926 212.579 134.087 210.123C133.084 211.667 132.154 213.185 131.296 214.677C130.43 216.11 129.683 217.419 129.057 218.605L120.114 213.227C121.188 210.881 122.612 208.318 124.387 205.538C126.154 202.698 127.95 200.067 129.775 197.646C132.295 194.303 134.389 191.951 136.058 190.589L144.293 197.118C143.549 197.68 142.534 198.707 141.249 200.198C141.999 200.764 142.783 201.355 143.602 201.972C144.446 202.555 145.294 203.168 146.147 203.811C148.5 205.585 150.793 207.367 153.027 209.158C155.26 210.949 157.034 212.392 158.346 213.489L151.547 222.082C151.129 221.714 150.486 221.148 149.617 220.386C148.773 219.59 147.81 218.703 146.727 217.727C147.081 219.812 146.943 222.088 146.313 224.555C145.709 226.988 144.34 229.619 142.206 232.45Z" fill="#FF6837"/>
<path d="M115.943 275.495C113.891 279.045 111.618 281.653 109.125 283.319C106.669 285.007 104.055 285.987 101.283 286.259C98.4957 286.473 95.6048 286.182 92.6105 285.388C89.6376 284.557 86.6081 283.398 83.522 281.909C80.4573 280.384 77.409 278.745 74.3773 276.992C70.9388 275.003 67.6569 272.958 64.5315 270.855C61.3692 268.73 58.7537 266.897 56.685 265.356L63.1955 255.504C65.6807 257.434 67.9314 259.13 69.9476 260.592C71.9481 261.995 73.8698 263.279 75.7127 264.443C77.5555 265.608 79.4753 266.767 81.4718 267.922C83.0246 268.819 84.7176 269.774 86.5506 270.784C88.3681 271.736 90.239 272.596 92.1633 273.364C94.0721 274.073 95.9185 274.548 97.7025 274.79C99.4709 274.974 101.119 274.768 102.648 274.172C104.161 273.517 105.431 272.303 106.457 270.528C107.569 268.606 108.041 266.807 107.875 265.132C107.693 263.399 107.074 261.783 106.017 260.283C104.923 258.763 103.574 257.341 101.97 256.02C100.329 254.676 98.5954 253.452 96.7681 252.346C94.9253 251.181 93.172 250.118 91.5082 249.156C88.3655 247.339 85.2618 245.668 82.1971 244.142C79.1323 242.617 75.8507 241.04 72.3521 239.412L77.4761 228.758C81.1965 230.515 84.5784 232.174 87.6218 233.737C90.6281 235.278 93.3699 236.765 95.8471 238.197C99.2116 240.142 102.372 242.142 105.328 244.197C108.305 246.215 110.893 248.352 113.09 250.609C115.251 252.845 116.905 255.232 118.052 257.77C119.162 260.287 119.58 263.02 119.305 265.969C119.052 268.881 117.931 272.057 115.943 275.495Z" fill="#FF6837"/>
<path d="M83.6237 341.257C83.2931 341.161 82.8644 341.023 82.3377 340.842C81.8279 340.622 81.2396 340.368 80.5729 340.081C78.9651 339.387 77.0212 338.502 74.7412 337.426C72.439 336.293 69.9491 335.057 67.2716 333.716C64.5549 332.358 61.8271 330.972 59.0881 329.558C56.3099 328.127 53.6493 326.747 51.1064 325.418C48.5411 324.032 46.2616 322.793 44.2677 321.701C44.0755 322.362 43.8917 323.004 43.7165 323.626L33.1581 320.607C34.3682 316.291 35.8451 311.789 37.5888 307.099C39.3494 302.37 41.1769 297.809 43.0714 293.417C44.4922 290.123 45.9322 287 47.3915 284.048C48.8285 281.04 50.189 278.371 51.473 276.041L60.8573 281.135C59.7263 282.787 58.603 284.744 57.4874 287.007C56.3325 289.253 55.18 291.71 54.0298 294.376C52.8458 297.121 51.698 299.998 50.5862 303.007C49.4522 305.96 48.3912 308.851 47.4033 311.681C48.9043 312.514 50.4641 313.373 52.0827 314.257C53.7183 315.102 55.4127 315.973 57.1659 316.869C57.7709 314.711 58.5474 312.371 59.4954 309.85C60.4603 307.289 61.4755 304.774 62.5412 302.303C63.759 299.48 64.9792 296.866 66.2017 294.463C67.4411 292.021 68.5444 290.218 69.5116 289.054L78.6779 293.844C77.1802 296.454 75.8566 298.93 74.7072 301.271C73.5185 303.596 72.4337 305.895 71.4526 308.17C69.5413 312.601 67.9494 317.101 66.677 321.669C70.6933 323.68 74.5304 325.567 78.1882 327.331C81.8631 329.056 84.9581 330.507 87.4733 331.685L83.6237 341.257Z" fill="#FF6837"/>
<path d="M74.8317 370.238C73.9069 373.349 72.8482 376.087 71.6556 378.45C70.5162 380.785 69.0768 382.629 67.3376 383.984C65.6393 385.35 63.4895 386.137 60.8883 386.344C58.2872 386.551 55.1034 386.095 51.337 384.975C48.5942 384.16 45.7915 383.171 42.9291 382.008C40.0668 380.846 37.325 379.652 34.7038 378.427C32.0538 377.15 29.7048 375.984 27.6567 374.929C27.5362 375.784 27.4521 376.517 27.4046 377.127L17.294 375.391C17.5218 373.276 17.9023 370.871 18.4354 368.178C18.9398 365.432 19.5277 362.555 20.1991 359.546C20.8827 356.497 21.6216 353.486 22.4159 350.515C23.1692 347.53 23.9291 344.749 24.6957 342.17C25.3042 340.123 25.8988 338.272 26.4795 336.618C27.0316 334.911 27.5332 333.523 27.9846 332.454L38.0937 335.993C37.5604 337.038 36.973 338.49 36.3314 340.348C35.6488 342.195 34.9607 344.285 34.2671 346.619C33.4519 349.362 32.6432 352.307 31.8412 355.455C31.0393 358.603 30.3003 361.613 29.6245 364.487C31.2466 365.325 32.9217 366.135 34.65 366.916C36.3783 367.697 38.0922 368.452 39.7917 369.18C40.17 366.708 40.697 364.035 41.3729 361.162C42.02 358.235 42.7224 355.347 43.4801 352.498C44.1969 349.637 44.89 347.081 45.5592 344.829C45.9486 343.519 46.3159 342.358 46.661 341.347C46.9652 340.324 47.2556 339.496 47.5322 338.866L57.53 342.105C57.3309 342.625 57.0914 343.356 56.8115 344.297C56.5029 345.186 56.1661 346.244 55.801 347.472C55.2778 349.233 54.7346 351.21 54.1716 353.404C53.5676 355.586 52.9802 357.862 52.4094 360.232C51.8099 362.549 51.2695 364.816 50.7883 367.035C50.2662 369.241 49.8459 371.255 49.5274 373.076C51.7712 373.921 53.5891 374.55 54.981 374.964C56.987 375.56 58.5399 375.732 59.6397 375.48C60.7395 375.228 61.6152 374.53 62.2668 373.387C62.8896 372.191 63.5053 370.57 64.1137 368.523C65.1967 364.879 66.0517 360.878 66.6788 356.52C67.3181 352.121 67.5911 347.68 67.4979 343.196L78.3836 345.697C78.2744 351.011 77.8487 355.741 77.1065 359.887C76.4174 364.004 75.6592 367.454 74.8317 370.238Z" fill="#FF6837"/>
<path d="M59.7316 439.074C56.8471 438.712 53.6787 438.238 50.2263 437.65C46.9002 437.083 43.3744 436.418 39.6488 435.653C35.9231 434.889 32.1662 434.054 28.3779 433.149C24.5475 432.237 20.8367 431.258 17.2455 430.213C17.2992 430.915 17.3565 431.597 17.4173 432.257C17.4432 432.868 17.4974 433.44 17.5797 433.974L6.98978 435.485C6.3252 424.887 6.57014 416.199 7.72459 409.421C10.0693 395.653 16.4835 389.662 26.967 391.448C31.8929 392.287 35.5288 394.596 37.8746 398.374C40.1782 402.146 41.1676 407.275 40.8427 413.762C44.7371 410.482 48.0667 407.085 50.8315 403.57C53.5614 400.006 55.9827 396.346 58.0953 392.59L66.1958 401.118C65.0158 403.214 63.5021 405.36 61.6548 407.558C59.8074 409.756 57.8162 411.908 55.6813 414.014C53.5464 416.12 51.4084 418.117 49.2672 420.005C47.1332 421.851 45.165 423.487 43.3625 424.913C46.2604 425.45 49.2003 425.994 52.1824 426.545C55.1296 427.047 58.182 427.567 61.3397 428.105L61.6541 428.548C61.3816 430.148 61.0876 431.875 60.7721 433.727C60.5059 435.545 60.3105 437.201 60.1858 438.696L59.7316 439.074ZM17.6692 411.699C17.4684 412.878 17.3236 414.11 17.2348 415.395C17.1039 416.672 17.0151 417.957 16.9684 419.248C19.2975 419.818 21.609 420.364 23.9032 420.884C26.1552 421.398 28.4108 421.89 30.67 422.362C30.9434 420.502 31.1787 418.484 31.376 416.308C31.5384 414.083 31.5108 411.956 31.2933 409.926C31.0337 407.889 30.4605 406.166 29.5738 404.759C28.6943 403.309 27.3493 402.431 25.5389 402.122C23.4338 401.764 21.7501 402.365 20.4877 403.926C19.2254 405.488 18.2859 408.079 17.6692 411.699Z" fill="#FF6837"/>
<path d="M57.2952 483.631C57.206 487.731 56.4702 491.111 55.088 493.772C53.7484 496.434 51.9295 498.552 49.6311 500.125C47.291 501.655 44.6177 502.792 41.6111 503.539C38.6055 504.242 35.3919 504.685 31.9705 504.867C28.55 505.006 25.089 505.037 21.5878 504.961C17.6168 504.874 13.7554 504.662 10.0035 504.324C6.20891 503.985 3.03392 503.638 0.478516 503.284L1.43968 491.514C4.54737 492.009 7.33668 492.412 9.80762 492.722C12.2368 492.988 14.5392 493.188 16.715 493.321C18.8908 493.453 21.1315 493.545 23.4372 493.595C25.2306 493.634 27.1738 493.655 29.267 493.658C31.3184 493.617 33.3721 493.47 35.4281 493.216C37.4424 492.918 39.2896 492.445 40.9697 491.798C42.608 491.108 43.9535 490.133 45.0062 488.875C46.0171 487.572 46.5449 485.896 46.5895 483.847C46.6378 481.627 46.1859 479.823 45.2336 478.435C44.2395 477.003 42.9182 475.885 41.2697 475.08C39.5785 474.275 37.7118 473.679 35.6697 473.293C33.585 472.905 31.4756 472.667 29.3416 472.578C27.1658 472.445 25.1172 472.358 23.1958 472.316C19.5664 472.237 16.0414 472.267 12.6209 472.406C9.20039 472.545 5.56497 472.744 1.71467 473.002L1.07463 461.197C5.18113 460.945 8.94418 460.771 12.3638 460.674C15.7407 460.577 18.8595 460.559 21.7203 460.622C25.6059 460.706 29.3388 460.937 32.9189 461.314C36.5 461.648 39.7971 462.276 42.8101 463.195C45.7804 464.115 48.3793 465.41 50.607 467.082C52.792 468.753 54.4744 470.947 55.654 473.664C56.8346 476.338 57.3817 479.661 57.2952 483.631Z" fill="#FF6837"/>
<path d="M58.8829 535.844C59.1826 539.076 59.2188 542.011 58.9915 544.648C58.8028 547.239 58.1534 549.487 57.0432 551.391C55.9755 553.292 54.2731 554.822 51.9358 555.982C49.5986 557.143 46.4737 557.904 42.5613 558.267C39.7121 558.531 36.7427 558.656 33.6532 558.642C30.5637 558.629 27.5746 558.541 24.6859 558.38C21.7508 558.18 19.1365 557.972 16.8432 557.756C17.0497 558.595 17.2443 559.306 17.427 559.89L7.3969 562.042C6.82097 559.994 6.27925 557.62 5.77175 554.922C5.21779 552.186 4.69255 549.296 4.19604 546.254C3.69558 543.17 3.26088 540.1 2.89195 537.046C2.48049 533.996 2.15056 531.132 1.90216 528.452C1.70502 526.326 1.56815 524.387 1.49155 522.636C1.36847 520.846 1.3175 519.371 1.33862 518.211L12.0388 517.733C11.9326 518.901 11.9277 520.467 12.024 522.431C12.0778 524.399 12.217 526.595 12.4418 529.019C12.7059 531.869 13.0516 534.903 13.4789 538.123C13.9061 541.344 14.3408 544.413 14.783 547.332C16.6006 547.506 18.4568 547.634 20.3516 547.716C22.2464 547.798 24.118 547.86 25.9664 547.903C25.3975 545.468 24.8919 542.791 24.4498 539.873C23.9612 536.916 23.5383 533.974 23.1812 531.048C22.7816 528.125 22.4733 525.494 22.2565 523.155C22.1303 521.795 22.0392 520.581 21.9831 519.513C21.8846 518.45 21.8463 517.575 21.8682 516.886L32.3533 516.171C32.3621 516.728 32.4118 517.496 32.5025 518.474C32.5467 519.413 32.6279 520.521 32.7462 521.797C32.9158 523.625 33.1475 525.663 33.4416 527.909C33.6931 530.159 33.995 532.49 34.3473 534.902C34.6531 537.275 34.9956 539.581 35.3747 541.819C35.7112 544.061 36.0706 546.087 36.4527 547.896C38.85 547.845 40.7716 547.753 42.2174 547.619C44.3012 547.426 45.8065 547.007 46.7334 546.364C47.6602 545.72 48.2134 544.747 48.3928 543.443C48.5257 542.101 48.4936 540.367 48.2964 538.241C47.9455 534.456 47.25 530.424 46.21 526.146C45.166 521.825 43.7664 517.601 42.0113 513.475L53.0456 511.744C54.9221 516.717 56.2874 521.265 57.1416 525.39C58.0344 529.467 58.6148 532.952 58.8829 535.844Z" fill="#FF6837"/>
<path d="M65.8975 581.277C66.6367 584.788 66.8007 588.158 66.3895 591.387C65.9783 594.616 65.1712 597.623 63.9681 600.407C62.7144 603.159 61.2738 605.645 59.6461 607.864L48.3587 603.694C49.6652 602.852 50.8343 601.667 51.8659 600.141C52.8886 598.572 53.7211 596.826 54.3633 594.901C55.0055 592.976 55.4212 591.012 55.6103 589.008C55.7906 586.963 55.6871 585.02 55.2999 583.182C54.7191 580.423 53.8183 578.322 52.5975 576.876C51.3348 575.44 49.9513 574.88 48.4467 575.197C47.2766 575.444 46.3945 576.022 45.8007 576.933C45.1562 577.81 44.7053 578.778 44.448 579.836C44.1401 580.861 43.8685 581.748 43.6332 582.496C43.488 583.05 43.3055 584.049 43.0856 585.492C42.8151 586.902 42.538 588.487 42.2543 590.249C41.9706 592.011 41.7111 593.681 41.4758 595.258C41.1987 596.844 40.9601 598.094 40.76 599.009C39.2711 605.826 35.6012 609.85 29.7503 611.082C27.8697 611.478 25.956 611.51 24.0094 611.178C22.0121 610.813 20.1028 610.037 18.2815 608.849C16.4602 607.661 14.8643 605.99 13.4939 603.834C12.1234 601.679 11.095 598.971 10.4086 595.711C9.66062 592.159 9.39325 588.92 9.6065 585.994C9.77796 583.078 10.2288 580.451 10.959 578.115C11.6804 575.738 12.5304 573.66 13.5092 571.883L24.3776 575.617C20.7572 581.224 19.5631 586.953 20.7951 592.804C21.3143 595.27 21.9819 597.093 22.798 598.274C23.5635 599.422 24.329 600.156 25.0945 600.475C25.8093 600.761 26.3757 600.86 26.7937 600.772C27.5041 600.622 28.1618 600.222 28.7667 599.571C29.3627 598.878 29.8642 597.528 30.2711 595.522C30.447 594.7 30.6537 593.609 30.8912 592.249C31.0781 590.857 31.3013 589.326 31.5608 587.656C31.8115 585.945 32.1128 584.267 32.4647 582.621C32.766 580.943 33.1189 579.407 33.5236 578.012C34.0427 576.332 34.741 574.57 35.6185 572.726C36.4961 570.883 37.719 569.229 39.2873 567.764C40.805 566.266 42.8385 565.249 45.3878 564.712C46.9341 564.386 48.7092 564.318 50.713 564.507C52.6751 564.705 54.6669 565.355 56.6883 566.457C58.7098 567.559 60.5367 569.291 62.1688 571.653C63.801 574.015 65.0439 577.224 65.8975 581.277Z" fill="#FF6837"/>
<path d="M67.5031 648.219L58.937 651.288C58.2331 649.722 57.4341 647.737 56.5401 645.334C55.6462 642.931 54.7859 640.494 53.9594 638.024C53.3768 636.282 52.8483 634.635 52.3739 633.082C51.886 631.489 51.4928 630.112 51.1945 628.951L59.7406 626.227C60.0793 627.24 60.4452 628.333 60.8381 629.508C61.1905 630.696 61.5835 631.938 62.0171 633.234C62.8843 635.826 63.8055 638.445 64.7807 641.091C65.7155 643.751 66.6229 646.127 67.5031 648.219Z" fill="#FF6837"/>
<path d="M98.9586 682.003C100.701 685.62 101.613 689.234 101.693 692.845C101.812 696.438 101.218 699.877 99.9086 703.163C98.5996 706.448 96.7226 709.391 94.2775 711.991C91.8325 714.591 88.9363 716.698 85.5888 718.31C82.5107 719.793 79.2679 720.787 75.8604 721.291C72.4144 721.813 69.0252 721.715 65.6929 720.998C62.3221 720.299 59.2106 718.859 56.3582 716.678C53.4873 714.458 51.0972 711.366 49.1879 707.403C47.2045 703.286 46.1924 699.365 46.1516 695.64C46.0723 691.933 46.7335 688.533 48.1352 685.44C49.5369 682.347 51.4873 679.606 53.9865 677.216C56.4858 674.827 59.2937 672.882 62.4103 671.38C66.1424 669.582 69.8356 668.49 73.4897 668.105C77.1439 667.719 80.6165 667.99 83.9075 668.917C87.16 669.862 90.0785 671.443 92.6629 673.658C95.2473 675.874 97.3459 678.655 98.9586 682.003ZM89.3203 686.646C88.2081 684.338 86.6214 682.471 84.5602 681.046C82.4606 679.64 79.9114 678.925 76.9128 678.9C73.9142 678.875 70.4718 679.798 66.5857 681.671C63.2383 683.283 60.8024 685.263 59.278 687.609C57.7535 689.955 56.9724 692.418 56.9345 694.996C56.8967 697.574 57.4246 699.998 58.5182 702.268C59.7602 704.846 61.2692 706.798 63.0454 708.123C64.8215 709.448 66.7578 710.269 68.8544 710.586C70.9125 710.922 73.0146 710.857 75.1609 710.392C77.3071 709.927 79.3999 709.203 81.4391 708.221C83.4398 707.257 85.1591 705.955 86.5967 704.314C87.9959 702.692 89.0729 700.893 89.8278 698.917C90.5257 696.922 90.8615 694.864 90.8354 692.743C90.7707 690.641 90.2657 688.609 89.3203 686.646Z" fill="#FF6837"/>
<path d="M123.916 726.139C125.847 729.163 127.19 732.257 127.945 735.424C128.701 738.59 129.007 741.688 128.865 744.718C128.663 747.735 128.193 750.57 127.454 753.221L115.421 753.305C116.346 752.055 117.022 750.534 117.448 748.742C117.851 746.913 118.013 744.985 117.934 742.958C117.856 740.93 117.551 738.946 117.021 737.004C116.467 735.027 115.684 733.246 114.673 731.662C113.156 729.287 111.571 727.638 109.918 726.717C108.23 725.819 106.738 725.784 105.442 726.612C104.434 727.255 103.813 728.108 103.579 729.17C103.286 730.218 103.206 731.283 103.339 732.364C103.413 733.432 103.472 734.357 103.515 735.14C103.575 735.71 103.757 736.708 104.061 738.136C104.306 739.551 104.606 741.132 104.963 742.881C105.32 744.629 105.666 746.283 106.003 747.842C106.304 749.423 106.522 750.677 106.658 751.604C107.671 758.508 105.659 763.568 100.62 766.787C98.9999 767.821 97.2207 768.527 95.2822 768.903C93.2847 769.267 91.2242 769.215 89.1009 768.747C86.9775 768.278 84.8942 767.278 82.851 765.745C80.8077 764.212 78.8896 762.042 77.0965 759.234C75.1424 756.175 73.7487 753.239 72.9154 750.427C72.046 747.637 71.5405 745.021 71.3989 742.577C71.2343 740.098 71.2962 737.854 71.5844 735.846L83.0714 735.503C81.6638 742.027 82.5692 747.808 85.7876 752.847C87.1439 754.971 88.4124 756.441 89.5929 757.258C90.7145 758.062 91.6897 758.478 92.5185 758.506C93.2882 758.521 93.8531 758.414 94.2131 758.184C94.8249 757.793 95.2989 757.187 95.6349 756.364C95.948 755.505 95.9407 754.065 95.6131 752.045C95.4872 751.213 95.2955 750.119 95.0377 748.764C94.721 747.395 94.3893 745.884 94.0426 744.23C93.673 742.541 93.3623 740.864 93.1106 739.201C92.8 737.524 92.5877 735.962 92.474 734.514C92.3663 732.759 92.3975 730.864 92.5678 728.829C92.7381 726.795 93.2982 724.815 94.2482 722.891C95.1393 720.954 96.6826 719.284 98.8782 717.882C100.21 717.031 101.847 716.34 103.788 715.81C105.694 715.302 107.787 715.207 110.067 715.524C112.347 715.842 114.668 716.817 117.029 718.451C119.39 720.085 121.686 722.648 123.916 726.139Z" fill="#FF6837"/>
<path d="M154.567 769.839C157.116 772.941 158.856 776.237 159.788 779.727C160.753 783.19 160.988 786.672 160.493 790.174C159.998 793.676 158.87 796.979 157.109 800.084C155.348 803.188 153.032 805.92 150.161 808.278C147.52 810.447 144.604 812.178 141.413 813.474C138.188 814.796 134.872 815.503 131.464 815.593C128.024 815.711 124.66 815.047 121.373 813.602C118.058 812.124 115.005 809.685 112.213 806.286C109.312 802.755 107.402 799.184 106.482 795.574C105.528 791.991 105.367 788.531 105.997 785.194C106.628 781.857 107.875 778.733 109.739 775.82C111.602 772.908 113.871 770.354 116.544 768.158C119.745 765.529 123.075 763.595 126.535 762.356C129.994 761.117 133.432 760.559 136.849 760.682C140.233 760.832 143.442 761.678 146.477 763.219C149.512 764.761 152.209 766.968 154.567 769.839ZM146.3 776.629C144.674 774.649 142.691 773.211 140.351 772.314C137.979 771.444 135.333 771.351 132.413 772.036C129.493 772.721 126.367 774.432 123.034 777.17C120.163 779.528 118.264 782.027 117.337 784.668C116.411 787.308 116.234 789.885 116.807 792.399C117.379 794.913 118.465 797.144 120.065 799.091C121.881 801.302 123.809 802.841 125.848 803.709C127.887 804.576 129.962 804.916 132.074 804.729C134.153 804.569 136.181 804.009 138.156 803.05C140.132 802.09 141.994 800.892 143.743 799.456C145.459 798.046 146.822 796.374 147.831 794.44C148.807 792.533 149.428 790.53 149.694 788.432C149.901 786.329 149.74 784.249 149.214 782.195C148.654 780.168 147.683 778.313 146.3 776.629Z" fill="#FF6837"/>
<path d="M206.62 824.122C204.715 826.317 202.557 828.686 200.147 831.227C197.826 833.675 195.311 836.234 192.602 838.904C189.894 841.574 187.109 844.231 184.249 846.875C181.36 849.55 178.481 852.088 175.615 854.49C176.228 854.837 176.826 855.168 177.408 855.485C177.93 855.803 178.436 856.077 178.926 856.306L174.287 865.945C165.113 860.6 158.031 855.561 153.041 850.83C142.907 841.22 141.499 832.557 148.817 824.84C152.255 821.214 156.197 819.478 160.642 819.632C165.057 819.817 169.87 821.85 175.078 825.729C174.521 820.669 173.551 816.012 172.17 811.759C170.728 807.507 169.034 803.459 167.089 799.613L178.682 797.629C179.767 799.775 180.708 802.227 181.506 804.986C182.304 807.744 182.984 810.596 183.546 813.541C184.107 816.487 184.577 819.375 184.954 822.205C185.3 825.005 185.564 827.551 185.746 829.842C187.804 827.733 189.892 825.593 192.01 823.422C194.067 821.253 196.198 819.006 198.402 816.682L198.945 816.667C200.123 817.784 201.393 818.989 202.757 820.282C204.119 821.515 205.386 822.599 206.559 823.534L206.62 824.122ZM160.469 843.835C161.336 844.658 162.279 845.464 163.297 846.253C164.285 847.072 165.303 847.861 166.351 848.619C168.12 847.001 169.86 845.384 171.569 843.767C173.249 842.182 174.913 840.582 176.562 838.967C175.169 837.705 173.624 836.387 171.926 835.012C170.167 833.639 168.384 832.478 166.577 831.529C164.74 830.611 162.99 830.129 161.327 830.082C159.633 830.006 158.155 830.634 156.891 831.967C155.421 833.517 154.984 835.25 155.579 837.168C156.173 839.086 157.803 841.308 160.469 843.835Z" fill="#FF6837"/>
<path d="M233.413 845.2C236.646 847.581 239.143 850.348 240.905 853.502C242.691 856.621 243.776 859.939 244.157 863.455C244.538 866.971 244.256 870.45 243.313 873.892C242.369 877.334 240.796 880.551 238.592 883.543C236.566 886.294 234.166 888.69 231.39 890.73C228.589 892.805 225.549 894.305 222.268 895.231C218.962 896.191 215.539 896.374 211.997 895.782C208.421 895.164 204.862 893.551 201.32 890.942C197.64 888.233 194.91 885.241 193.13 881.968C191.325 878.729 190.318 875.415 190.109 872.026C189.9 868.637 190.341 865.301 191.431 862.02C192.521 858.739 194.092 855.706 196.143 852.92C198.6 849.584 201.352 846.891 204.401 844.84C207.45 842.788 210.645 841.402 213.987 840.681C217.304 839.994 220.623 840.025 223.944 840.773C227.265 841.521 230.421 842.997 233.413 845.2ZM227.069 853.815C225.006 852.296 222.73 851.389 220.242 851.095C217.728 850.835 215.14 851.395 212.479 852.777C209.817 854.158 207.208 856.586 204.65 860.059C202.446 863.051 201.22 865.941 200.971 868.728C200.722 871.514 201.185 874.056 202.358 876.352C203.531 878.648 205.132 880.543 207.161 882.037C209.466 883.734 211.712 884.752 213.902 885.092C216.092 885.431 218.187 885.251 220.189 884.55C222.165 883.883 223.992 882.842 225.671 881.427C227.35 880.011 228.86 878.392 230.203 876.569C231.52 874.781 232.429 872.825 232.932 870.703C233.409 868.614 233.519 866.521 233.261 864.421C232.944 862.331 232.277 860.355 231.262 858.494C230.22 856.666 228.823 855.107 227.069 853.815Z" fill="#FF6837"/>
<path d="M297.306 885.124C297.114 885.555 296.881 886.012 296.61 886.496C296.338 886.981 296.024 887.539 295.669 888.172C294.77 889.774 293.667 891.652 292.359 893.808C291.03 896.001 289.591 898.303 288.041 900.715C286.471 903.163 284.901 905.612 283.33 908.061C281.739 910.547 280.21 912.922 278.744 915.184C277.241 917.426 275.892 919.436 274.698 921.215C275.664 921.414 276.526 921.58 277.284 921.712L273.469 931.912C268.592 930.742 264.179 929.441 260.232 928.009C256.248 926.556 252.785 925.004 249.843 923.353C243.847 919.987 239.903 916.28 238.013 912.231C236.122 908.183 236.389 903.998 238.814 899.678C240.194 897.22 241.894 895.456 243.915 894.386C245.915 893.354 248.205 892.852 250.785 892.879C247.323 887.704 247.149 882.341 250.264 876.792C251.644 874.334 253.269 872.528 255.141 871.375C256.955 870.238 258.851 869.564 260.831 869.353C262.811 869.142 264.737 869.243 266.61 869.658C268.467 870.015 270.145 870.516 271.644 871.161C273.126 871.748 274.259 872.261 275.041 872.7C276.977 873.787 278.94 875.134 280.928 876.74C282.917 878.345 284.744 880.106 286.412 882.022C286.83 881.277 287.227 880.569 287.603 879.899L297.306 885.124ZM254.856 913.898C256.196 914.65 257.653 915.37 259.227 916.057C260.742 916.761 262.299 917.39 263.898 917.945C265.647 915.351 267.648 912.311 269.899 908.824C269.435 908.515 268.962 908.224 268.478 907.953C267.956 907.66 267.435 907.367 266.913 907.075C257.081 901.556 251.036 900.808 248.779 904.83C248.026 906.171 248.204 907.642 249.313 909.244C250.364 910.862 252.211 912.414 254.856 913.898ZM270.583 897.527C271.365 897.966 272.166 898.415 272.985 898.875C273.767 899.314 274.578 899.745 275.419 900.168C276.413 898.571 277.407 896.974 278.401 895.377C279.358 893.759 280.324 892.171 281.297 890.611C279.567 888.807 277.78 887.192 275.936 885.765C274.071 884.376 272.412 883.273 270.96 882.458C267.869 880.723 265.444 879.852 263.685 879.844C261.905 879.873 260.524 880.763 259.541 882.514C258.329 884.674 258.684 887.052 260.605 889.649C262.49 892.225 265.816 894.851 270.583 897.527Z" fill="#FF6837"/>
<path d="M339.963 903.312L349.302 909.395C344.239 916.267 339.4 922.376 334.784 927.723C330.129 933.053 325.782 937.471 321.743 940.976C317.704 944.482 314.05 946.945 310.782 948.365C307.457 949.809 304.631 950.049 302.302 949.086C297.606 947.143 295.089 940.994 294.752 930.639C294.398 920.324 296.253 906.347 300.317 888.709L311.382 891.624C310.778 894.424 310.189 897.3 309.614 900.252C309.024 903.243 308.486 906.163 308 909.013C308.931 909.444 309.948 909.888 311.053 910.346C312.987 911.146 315.056 911.956 317.259 912.775C319.422 913.578 321.591 914.313 323.764 914.981C325.881 915.673 327.869 916.287 329.726 916.825C331.521 914.609 333.313 912.346 335.101 910.036C336.833 907.748 338.454 905.507 339.963 903.312ZM314.766 933.375C316.402 931.879 318.807 929.362 321.982 925.822C320.203 925.317 318.351 924.713 316.424 924.008C314.48 923.342 312.601 922.634 310.786 921.883C309.247 921.246 307.783 920.594 306.395 919.927C306.115 922.168 305.905 924.184 305.764 925.975C305.585 927.75 305.505 929.172 305.524 930.243C305.47 932.717 305.58 934.519 305.852 935.649C306.108 936.817 306.571 937.541 307.242 937.818C307.953 938.112 308.859 937.933 309.961 937.28C311.047 936.666 312.649 935.364 314.766 933.375Z" fill="#FF6837"/>
<path d="M371.37 913.044C374.822 914.02 377.882 915.441 380.55 917.305C383.219 919.169 385.506 921.281 387.414 923.64C389.268 926.029 390.8 928.459 392.009 930.932L383.072 938.99C382.933 937.441 382.427 935.856 381.555 934.233C380.641 932.599 379.481 931.05 378.075 929.587C376.669 928.124 375.123 926.844 373.436 925.745C371.709 924.635 369.941 923.825 368.132 923.313C365.42 922.546 363.14 922.367 361.294 922.777C359.435 923.228 358.297 924.193 357.878 925.673C357.553 926.823 357.655 927.873 358.186 928.822C358.664 929.8 359.311 930.649 360.129 931.369C360.893 932.118 361.552 932.77 362.105 933.326C362.528 933.712 363.328 934.337 364.503 935.203C365.626 936.097 366.902 937.079 368.33 938.149C369.759 939.219 371.117 940.224 372.404 941.165C373.68 942.147 374.676 942.94 375.393 943.542C380.738 948.027 382.597 953.147 380.97 958.9C380.447 960.75 379.586 962.459 378.387 964.029C377.136 965.628 375.562 966.958 373.664 968.019C371.766 969.08 369.544 969.716 366.999 969.928C364.453 970.141 361.578 969.793 358.372 968.887C354.879 967.899 351.886 966.631 349.395 965.083C346.892 963.576 344.776 961.957 343.046 960.225C341.276 958.481 339.831 956.763 338.712 955.071L347.068 947.182C350.351 952.992 354.869 956.711 360.623 958.339C363.048 959.024 364.973 959.28 366.398 959.106C367.77 958.962 368.775 958.625 369.413 958.095C369.999 957.595 370.349 957.139 370.466 956.728C370.663 956.03 370.614 955.261 370.319 954.423C369.982 953.574 369.02 952.503 367.433 951.21C366.786 950.672 365.916 949.982 364.822 949.141C363.676 948.328 362.424 947.419 361.066 946.414C359.667 945.397 358.321 944.35 357.028 943.274C355.681 942.228 354.485 941.201 353.438 940.195C352.191 938.955 350.955 937.518 349.73 935.884C348.506 934.251 347.609 932.4 347.041 930.33C346.419 928.29 346.463 926.017 347.172 923.51C347.602 921.989 348.366 920.386 349.465 918.699C350.551 917.054 352.052 915.592 353.967 914.314C355.882 913.036 358.265 912.223 361.115 911.875C363.965 911.527 367.383 911.917 371.37 913.044Z" fill="#FF6837"/>
<path d="M435.747 927.131C439.729 927.64 443.257 928.843 446.33 930.742C449.408 932.599 451.968 934.971 454.011 937.858C456.054 940.745 457.5 943.922 458.349 947.389C459.198 950.855 459.387 954.432 458.917 958.117C458.484 961.506 457.552 964.767 456.118 967.9C454.68 971.074 452.752 973.864 450.336 976.268C447.914 978.714 445.012 980.539 441.629 981.744C438.204 982.943 434.309 983.264 429.946 982.707C425.413 982.128 421.573 980.842 418.426 978.847C415.274 976.895 412.782 974.489 410.951 971.629C409.121 968.769 407.884 965.64 407.241 962.243C406.598 958.845 406.496 955.431 406.934 951.999C407.458 947.89 408.554 944.198 410.22 940.923C411.887 937.648 414.005 934.883 416.575 932.628C419.139 930.415 422.054 928.828 425.32 927.867C428.586 926.906 432.061 926.661 435.747 927.131ZM434.393 937.744C431.851 937.419 429.421 937.733 427.104 938.686C424.781 939.682 422.792 941.43 421.138 943.931C419.485 946.432 418.384 949.823 417.838 954.101C417.368 957.787 417.702 960.908 418.839 963.465C419.977 966.021 421.616 968.017 423.758 969.453C425.9 970.889 428.22 971.766 430.72 972.085C433.558 972.447 436.017 972.244 438.096 971.476C440.174 970.708 441.917 969.532 443.325 967.946C444.728 966.403 445.818 964.604 446.597 962.551C447.376 960.498 447.908 958.348 448.195 956.103C448.476 953.9 448.32 951.749 447.727 949.65C447.128 947.593 446.206 945.71 444.961 944.001C443.667 942.329 442.124 940.926 440.331 939.793C438.533 938.703 436.553 938.019 434.393 937.744Z" fill="#FF6837"/>
<path d="M477.436 931.349C477.674 933.583 477.849 936.285 477.958 939.453C478.025 942.62 478.037 946.063 477.993 949.78C477.906 953.496 477.774 957.274 477.596 961.113C477.373 965.934 477.07 970.623 476.688 975.18C476.306 979.737 475.864 983.736 475.363 987.175L463.597 986.438C464.206 983.431 464.734 979.885 465.18 975.801C465.583 971.716 465.905 967.07 466.146 961.865C466.391 956.575 466.552 951.26 466.628 945.919C466.662 940.576 466.654 935.68 466.603 931.232L477.436 931.349Z" fill="#FF6837"/>
<path d="M512.157 931.809C516.596 931.642 520.36 932.29 523.449 933.755C526.538 935.177 529.048 937.134 530.979 939.625C532.869 942.118 534.276 944.865 535.201 947.864C536.126 950.864 536.645 953.857 536.758 956.845C536.892 960.387 536.448 963.908 535.426 967.409C534.404 970.909 532.794 974.111 530.596 977.015C528.355 979.92 525.538 982.292 522.146 984.13C518.71 985.969 514.667 986.976 510.015 987.152C506.088 987.3 502.631 986.854 499.643 985.812C496.656 984.814 494.087 983.543 491.934 982C489.741 980.502 487.977 979.073 486.644 977.712L494.32 968.768C495.568 970.131 496.898 971.406 498.31 972.592C499.68 973.78 501.297 974.723 503.161 975.422C505.025 976.121 507.302 976.42 509.991 976.318C512.893 976.209 515.369 975.581 517.42 974.435C519.473 973.332 521.128 971.881 522.385 970.081C523.641 968.281 524.549 966.281 525.107 964.08C525.622 961.881 525.837 959.629 525.75 957.324C525.646 954.593 525.103 952.092 524.12 949.821C523.094 947.552 521.637 945.748 519.749 944.409C517.818 943.071 515.465 942.455 512.691 942.559C509.277 942.688 506.49 943.584 504.33 945.247C502.17 946.91 500.719 949.23 499.977 952.207C501.807 952.01 503.572 951.772 505.271 951.494C506.929 951.261 508.416 951.012 509.731 950.749L511.21 961.079C508.713 961.728 505.826 962.243 502.55 962.624C499.232 963.048 496.058 963.317 493.028 963.432C488.846 963.59 485.699 963.452 483.589 963.019L483.448 952.51C484.354 952.732 485.791 952.871 487.759 952.924C487.724 951.986 487.687 951.004 487.648 949.98C487.567 948.957 487.506 947.912 487.466 946.845C487.355 943.9 487.288 940.997 487.265 938.134C487.243 935.271 487.242 932.985 487.263 931.275L498.219 931.117C498.198 931.674 498.166 932.53 498.124 933.685C498.039 934.842 497.961 936.149 497.887 937.605C499.28 936.014 501.132 934.683 503.442 933.613C505.71 932.544 508.615 931.943 512.157 931.809Z" fill="#FF6837"/>
<path d="M562.114 924.966C566.162 924.313 569.619 924.425 572.486 925.304C575.347 926.14 577.758 927.546 579.721 929.522C581.649 931.547 583.251 933.971 584.528 936.793C585.764 939.622 586.78 942.702 587.577 946.035C588.332 949.374 588.989 952.772 589.547 956.229C590.18 960.15 590.669 963.987 591.015 967.738C591.367 971.531 591.6 974.716 591.713 977.294L579.964 978.476C579.889 975.33 579.781 972.514 579.639 970.028C579.462 967.591 579.242 965.29 578.979 963.126C578.717 960.962 578.402 958.742 578.034 956.465C577.748 954.694 577.418 952.779 577.042 950.72C576.631 948.71 576.115 946.716 575.493 944.74C574.836 942.813 574.038 941.082 573.098 939.546C572.122 938.06 570.92 936.912 569.492 936.105C568.029 935.346 566.285 935.13 564.261 935.456C562.069 935.81 560.376 936.581 559.183 937.768C557.955 939.005 557.094 940.506 556.601 942.273C556.114 944.082 555.865 946.026 555.855 948.104C555.851 950.225 555.998 952.342 556.296 954.457C556.559 956.621 556.843 958.652 557.149 960.549C557.728 964.133 558.394 967.594 559.15 970.933C559.905 974.272 560.757 977.812 561.707 981.552L550.213 984.316C549.222 980.323 548.37 976.653 547.657 973.307C546.951 970.003 546.37 966.939 545.914 964.114C545.295 960.277 544.847 956.564 544.571 952.975C544.252 949.392 544.273 946.036 544.633 942.907C545 939.819 545.805 937.029 547.046 934.536C548.294 932.085 550.148 930.033 552.607 928.382C555.024 926.737 558.193 925.599 562.114 924.966Z" fill="#FF6837"/>
<path d="M633.507 908.459C633.641 908.776 633.805 909.195 633.997 909.718C634.149 910.252 634.324 910.868 634.522 911.567C635.001 913.251 635.543 915.317 636.149 917.764C636.726 920.264 637.34 922.976 637.993 925.898C638.657 928.862 639.306 931.852 639.94 934.868C640.587 937.926 641.198 940.86 641.774 943.671C642.321 946.535 642.801 949.084 643.214 951.32C643.848 951.051 644.461 950.788 645.054 950.531L649.385 960.623C645.276 962.411 640.852 964.111 636.116 965.723C631.338 967.346 626.648 968.811 622.047 970.118C618.595 971.098 615.265 971.955 612.055 972.689C608.815 973.475 605.887 974.107 603.269 974.584L601.289 964.091C603.284 963.924 605.511 963.559 607.97 962.993C610.44 962.469 613.072 961.811 615.866 961.017C618.742 960.201 621.697 959.273 624.732 958.233C627.737 957.247 630.649 956.243 633.466 955.22C633.164 953.53 632.844 951.779 632.507 949.965C632.128 948.164 631.732 946.301 631.319 944.376C629.264 945.27 626.96 946.146 624.407 947.004C621.813 947.874 619.221 948.677 616.633 949.412C613.675 950.252 610.878 950.957 608.243 951.528C605.567 952.11 603.472 952.394 601.959 952.38L599.881 942.248C602.85 941.76 605.605 941.222 608.147 940.634C610.699 940.086 613.167 939.474 615.55 938.798C620.193 937.479 624.686 935.87 629.03 933.971C628.052 929.587 627.091 925.42 626.147 921.47C625.161 917.532 624.331 914.217 623.655 911.523L633.507 908.459Z" fill="#FF6837"/>
<path d="M661.529 896.967C664.525 895.719 667.316 894.811 669.901 894.243C672.431 893.651 674.77 893.602 676.919 894.095C679.051 894.548 681.019 895.718 682.822 897.604C684.626 899.49 686.283 902.246 687.794 905.873C688.895 908.514 689.898 911.312 690.805 914.265C691.712 917.219 692.518 920.098 693.224 922.904C693.908 925.765 694.487 928.323 694.964 930.577C695.703 930.13 696.324 929.732 696.827 929.384L701.868 938.319C700.084 939.478 697.979 940.702 695.555 941.99C693.107 943.333 690.505 944.695 687.749 946.075C684.953 947.471 682.152 948.8 679.347 950.061C676.558 951.362 673.921 952.53 671.437 953.565C669.466 954.386 667.656 955.094 666.007 955.689C664.334 956.339 662.942 956.827 661.828 957.152L658.186 947.079C659.333 946.833 660.829 946.372 662.676 945.695C664.538 945.057 666.593 944.271 668.841 943.334C671.482 942.234 674.276 941 677.223 939.634C680.17 938.267 682.971 936.938 685.625 935.647C685.251 933.86 684.82 932.05 684.334 930.217C683.848 928.384 683.35 926.578 682.841 924.801C680.686 926.069 678.281 927.349 675.627 928.64C672.949 929.986 670.267 931.266 667.579 932.478C664.908 933.73 662.489 934.807 660.32 935.711C659.059 936.236 657.927 936.685 656.925 937.056C655.939 937.467 655.115 937.764 654.451 937.948L650.647 928.151C651.176 927.977 651.894 927.701 652.801 927.323C653.684 927.001 654.718 926.594 655.9 926.101C657.595 925.395 659.471 924.567 661.528 923.618C663.601 922.708 665.737 921.725 667.934 920.671C670.109 919.672 672.209 918.659 674.232 917.631C676.273 916.642 678.099 915.696 679.712 914.792C678.95 912.519 678.29 910.712 677.731 909.371C676.927 907.44 676.079 906.127 675.189 905.434C674.298 904.741 673.204 904.503 671.907 904.719C670.586 904.992 668.94 905.539 666.969 906.36C663.46 907.822 659.818 909.686 656.044 911.953C652.229 914.236 648.614 916.83 645.197 919.734L640.259 909.715C644.448 906.443 648.384 903.786 652.067 901.742C655.694 899.676 658.848 898.084 661.529 896.967Z" fill="#FF6837"/>
<path d="M724.432 865.191C725.974 867.655 727.607 870.411 729.332 873.459C730.994 876.395 732.706 879.549 734.466 882.92C736.227 886.291 737.953 889.731 739.645 893.24C741.357 896.785 742.942 900.28 744.401 903.724C744.911 903.239 745.403 902.764 745.877 902.3C746.334 901.894 746.744 901.49 747.105 901.089L754.966 908.345C747.171 915.554 740.281 920.852 734.297 924.239C722.143 931.118 713.447 929.93 708.208 920.676C705.747 916.327 705.24 912.05 706.688 907.844C708.156 903.676 711.507 899.669 716.741 895.823C711.739 894.876 707.002 894.44 702.531 894.517C698.044 894.653 693.677 895.088 689.43 895.822L690.925 884.156C693.294 883.747 695.915 883.564 698.786 883.608C701.657 883.652 704.583 883.836 707.564 884.161C710.545 884.485 713.444 884.881 716.26 885.348C719.039 885.837 721.55 886.329 723.795 886.826C722.38 884.24 720.945 881.617 719.488 878.957C718.016 876.355 716.491 873.661 714.913 870.873L715.058 870.349C716.47 869.55 717.994 868.687 719.63 867.762C721.207 866.82 722.614 865.925 723.852 865.077L724.432 865.191ZM729.781 915.091C730.822 914.502 731.868 913.836 732.92 913.093C733.993 912.388 735.045 911.645 736.076 910.865C735.046 908.7 734.009 906.563 732.964 904.456C731.939 902.386 730.896 900.326 729.834 898.277C728.22 899.24 726.507 900.332 724.696 901.553C722.868 902.833 721.236 904.198 719.8 905.649C718.385 907.137 717.412 908.67 716.881 910.246C716.313 911.844 716.481 913.441 717.385 915.04C718.437 916.898 719.967 917.823 721.975 917.816C723.983 917.808 726.585 916.9 729.781 915.091Z" fill="#FF6837"/>
<path d="M760.5 838.917C763.734 836.397 766.819 834.831 769.755 834.221C772.664 833.577 775.455 833.649 778.127 834.436C780.791 835.284 783.362 836.637 785.84 838.496C788.284 840.381 790.658 842.592 792.961 845.129C795.23 847.692 797.441 850.355 799.594 853.117C802.036 856.249 804.312 859.377 806.42 862.498C808.555 865.653 810.292 868.334 811.632 870.538L801.902 877.23C800.322 874.508 798.872 872.092 797.551 869.981C796.223 867.93 794.923 866.019 793.651 864.249C792.379 862.478 791.034 860.684 789.616 858.865C788.513 857.45 787.302 855.931 785.981 854.306C784.654 852.742 783.242 851.244 781.746 849.811C780.242 848.438 778.709 847.304 777.146 846.411C775.575 845.577 773.97 845.15 772.329 845.13C770.681 845.169 769.048 845.819 767.432 847.079C765.68 848.445 764.567 849.935 764.094 851.55C763.612 853.225 763.58 854.955 763.998 856.742C764.442 858.562 765.16 860.385 766.151 862.212C767.168 864.072 768.316 865.858 769.595 867.568C770.867 869.338 772.094 870.981 773.275 872.497C775.507 875.36 777.758 878.073 780.027 880.637C782.296 883.2 784.747 885.892 787.38 888.714L778.635 896.668C775.844 893.645 773.332 890.838 771.096 888.249C768.887 885.693 766.903 883.287 765.144 881.03C762.754 877.965 760.574 874.926 758.604 871.912C756.601 868.926 755.004 865.974 753.813 863.057C752.649 860.174 752.01 857.341 751.899 854.558C751.813 851.809 752.451 849.119 753.811 846.488C755.138 843.883 757.368 841.359 760.5 838.917Z" fill="#FF6837"/>
<path d="M799.93 804.672C802.242 802.394 804.491 800.508 806.677 799.014C808.802 797.52 810.953 796.599 813.13 796.253C815.277 795.876 817.539 796.225 819.917 797.3C822.295 798.374 824.863 800.311 827.62 803.11C829.629 805.148 831.606 807.368 833.551 809.768C835.496 812.168 837.321 814.537 839.025 816.875C840.729 819.274 842.223 821.429 843.507 823.341C844.026 822.65 844.453 822.049 844.789 821.538L852.805 827.94C851.584 829.682 850.09 831.604 848.323 833.705C846.556 835.866 844.652 838.102 842.611 840.413C840.54 842.753 838.439 845.033 836.309 847.252C834.209 849.501 832.2 851.57 830.283 853.459C828.762 854.957 827.348 856.291 826.041 857.459C824.733 858.688 823.624 859.661 822.712 860.379L815.569 852.399C816.54 851.741 817.755 850.754 819.215 849.436C820.704 848.148 822.316 846.65 824.05 844.941C826.088 842.933 828.218 840.744 830.44 838.375C832.662 836.005 834.763 833.726 836.742 831.536C835.727 830.018 834.651 828.5 833.514 826.982C832.378 825.463 831.241 823.975 830.104 822.517C828.58 824.499 826.828 826.585 824.849 828.775C822.869 831.025 820.86 833.215 818.82 835.344C816.811 837.504 814.97 839.408 813.297 841.057C812.323 842.016 811.441 842.855 810.651 843.574C809.89 844.323 809.237 844.907 808.69 845.326L801.498 837.662C801.924 837.303 802.487 836.779 803.186 836.089C803.885 835.46 804.691 834.696 805.604 833.797C806.912 832.508 808.342 831.039 809.895 829.389C811.477 827.77 813.091 826.061 814.735 824.261C816.378 822.521 817.946 820.796 819.439 819.086C820.961 817.406 822.302 815.845 823.46 814.404C821.903 812.581 820.615 811.152 819.596 810.118C818.127 808.627 816.85 807.727 815.765 807.417C814.68 807.107 813.577 807.295 812.454 807.981C811.331 808.728 810.009 809.85 808.488 811.349C805.78 814.017 803.1 817.108 800.447 820.622C797.763 824.165 795.379 827.923 793.296 831.894L784.971 824.448C787.632 819.847 790.289 815.911 792.94 812.639C795.532 809.366 797.862 806.71 799.93 804.672Z" fill="#FF6837"/>
<path d="M830.691 770.494C832.945 767.703 835.454 765.447 838.216 763.725C840.979 762.004 843.82 760.73 846.739 759.903C849.664 759.136 852.5 758.682 855.249 758.542L859.148 769.926C857.67 769.445 856.013 769.287 854.178 769.452C852.316 769.65 850.436 770.109 848.539 770.827C846.641 771.545 844.856 772.464 843.183 773.583C841.484 774.736 840.044 776.043 838.863 777.505C837.092 779.698 836.032 781.724 835.683 783.584C835.367 785.47 835.808 786.896 837.004 787.862C837.934 788.613 838.94 788.931 840.021 788.816C841.108 788.761 842.143 788.499 843.126 788.03C844.115 787.621 844.974 787.272 845.702 786.982C846.224 786.744 847.113 786.255 848.37 785.513C849.634 784.832 851.039 784.045 852.583 783.152C854.128 782.259 855.586 781.405 856.958 780.591C858.362 779.804 859.482 779.199 860.318 778.776C866.542 775.623 871.98 775.925 876.632 779.682C878.127 780.889 879.361 782.353 880.333 784.071C881.312 785.85 881.917 787.821 882.147 789.983C882.377 792.145 882.089 794.438 881.284 796.862C880.479 799.286 879.03 801.794 876.937 804.386C874.656 807.21 872.314 809.464 869.912 811.147C867.543 812.856 865.222 814.166 862.95 815.076C860.651 816.019 858.504 816.673 856.508 817.037L852.536 806.253C859.17 805.517 864.365 802.823 868.122 798.172C869.705 796.211 870.696 794.542 871.096 793.163C871.503 791.844 871.588 790.787 871.351 789.993C871.121 789.258 870.84 788.756 870.508 788.488C869.943 788.032 869.217 787.775 868.33 787.717C867.417 787.693 866.054 788.157 864.242 789.109C863.493 789.492 862.517 790.022 861.313 790.696C860.115 791.431 858.788 792.225 857.33 793.079C855.845 793.966 854.354 794.793 852.856 795.559C851.365 796.386 849.951 797.083 848.614 797.651C846.984 798.31 845.177 798.882 843.193 799.366C841.21 799.851 839.155 799.948 837.029 799.658C834.909 799.428 832.835 798.494 830.809 796.858C829.579 795.865 828.405 794.532 827.286 792.859C826.199 791.213 825.445 789.259 825.022 786.996C824.599 784.733 824.787 782.222 825.587 779.465C826.387 776.707 828.088 773.717 830.691 770.494Z" fill="#FF6837"/>
<path d="M881.574 726.953L889.367 731.65C888.598 733.186 887.566 735.059 886.269 737.271C884.973 739.483 883.629 741.69 882.237 743.893C881.256 745.445 880.314 746.896 879.411 748.245C878.485 749.63 877.667 750.806 876.956 751.771L869.442 746.872C870.012 745.969 870.628 744.994 871.29 743.947C871.988 742.923 872.702 741.833 873.432 740.678C874.892 738.367 876.339 735.998 877.772 733.569C879.242 731.163 880.509 728.958 881.574 726.953Z" fill="#FF6837"/>
<path d="M887.95 681.257C889.658 677.624 891.888 674.637 894.64 672.297C897.353 669.939 900.397 668.232 903.773 667.176C907.148 666.12 910.615 665.721 914.175 665.979C917.735 666.236 921.196 667.156 924.559 668.737C927.651 670.191 930.467 672.081 933.007 674.408C935.585 676.753 937.647 679.444 939.191 682.483C940.775 685.54 941.619 688.863 941.725 692.452C941.813 696.08 940.921 699.885 939.049 703.866C937.105 708.001 934.7 711.259 931.834 713.64C929.007 716.04 925.951 717.67 922.667 718.533C919.383 719.396 916.025 719.611 912.595 719.178C909.165 718.745 905.884 717.792 902.753 716.32C899.004 714.558 895.828 712.38 893.224 709.787C890.621 707.195 888.641 704.329 887.285 701.19C885.968 698.07 885.354 694.808 885.444 691.405C885.533 688.002 886.369 684.619 887.95 681.257ZM897.631 685.809C896.541 688.128 896.093 690.536 896.287 693.034C896.52 695.551 897.572 697.98 899.444 700.323C901.315 702.666 904.203 704.755 908.107 706.591C911.469 708.172 914.542 708.814 917.324 708.517C920.106 708.221 922.51 707.274 924.534 705.678C926.559 704.081 928.108 702.143 929.18 699.863C930.397 697.273 930.96 694.871 930.868 692.657C930.777 690.443 930.193 688.423 929.117 686.595C928.08 684.786 926.704 683.196 924.99 681.823C923.275 680.451 921.394 679.283 919.345 678.32C917.336 677.375 915.241 676.862 913.061 676.781C910.919 676.718 908.844 677.017 906.835 677.677C904.846 678.393 903.037 679.43 901.408 680.788C899.817 682.164 898.558 683.837 897.631 685.809Z" fill="#FF6837"/>
<path d="M906.43 634.051C907.554 630.644 909.104 627.647 911.081 625.061C913.058 622.475 915.265 620.28 917.704 618.476C920.17 616.726 922.664 615.299 925.186 614.197L932.854 623.471C931.301 623.543 929.695 623.981 928.036 624.783C926.364 625.626 924.768 626.718 923.246 628.06C921.724 629.402 920.378 630.892 919.209 632.53C918.026 634.209 917.14 635.941 916.552 637.725C915.669 640.402 915.393 642.672 915.723 644.535C916.094 646.411 917.009 647.59 918.469 648.071C919.605 648.446 920.658 648.388 921.629 647.899C922.627 647.463 923.503 646.853 924.257 646.067C925.038 645.335 925.718 644.705 926.297 644.176C926.701 643.77 927.36 642.998 928.275 641.86C929.216 640.777 930.252 639.544 931.382 638.163C932.512 636.782 933.575 635.468 934.57 634.222C935.606 632.99 936.44 632.028 937.073 631.337C941.783 626.19 946.977 624.552 952.656 626.424C954.481 627.026 956.152 627.959 957.669 629.224C959.213 630.542 960.474 632.172 961.453 634.114C962.432 636.056 962.973 638.303 963.076 640.855C963.178 643.407 962.708 646.265 961.665 649.429C960.529 652.877 959.134 655.812 957.48 658.235C955.868 660.671 954.159 662.716 952.355 664.37C950.537 666.064 948.759 667.434 947.02 668.479L939.496 659.793C945.442 656.762 949.351 652.407 951.223 646.728C952.012 644.335 952.35 642.423 952.238 640.992C952.152 639.614 951.858 638.596 951.357 637.936C950.882 637.329 950.442 636.959 950.036 636.826C949.347 636.598 948.577 636.614 947.727 636.874C946.863 637.174 945.752 638.089 944.393 639.619C943.828 640.243 943.101 641.082 942.213 642.139C941.353 643.249 940.391 644.461 939.328 645.774C938.252 647.129 937.149 648.429 936.019 649.675C934.915 650.975 933.839 652.127 932.789 653.129C931.496 654.322 930.007 655.495 928.323 656.649C926.639 657.802 924.75 658.619 922.659 659.098C920.594 659.632 918.325 659.491 915.85 658.675C914.35 658.18 912.78 657.348 911.142 656.178C909.545 655.022 908.149 653.46 906.954 651.492C905.759 649.524 905.048 647.109 904.823 644.246C904.597 641.384 905.133 637.986 906.43 634.051Z" fill="#FF6837"/>
<path d="M920.927 582.683C921.721 578.747 923.175 575.316 925.291 572.387C927.364 569.451 929.914 567.068 932.941 565.238C935.967 563.409 939.24 562.195 942.759 561.597C946.278 561 949.858 561.068 953.5 561.803C956.85 562.478 960.035 563.643 963.056 565.298C966.119 566.961 968.762 569.084 970.986 571.668C973.252 574.259 974.864 577.286 975.822 580.746C976.771 584.249 976.811 588.156 975.941 592.469C975.038 596.948 973.479 600.686 971.263 603.681C969.089 606.684 966.509 608.996 963.525 610.616C960.541 612.236 957.331 613.245 953.896 613.642C950.462 614.038 947.049 613.895 943.658 613.211C939.597 612.392 935.993 611.034 932.847 609.136C929.7 607.238 927.095 604.926 925.03 602.201C923.008 599.484 921.634 596.462 920.911 593.136C920.188 589.81 920.193 586.325 920.927 582.683ZM931.415 584.798C930.908 587.309 931.047 589.755 931.831 592.135C932.656 594.524 934.257 596.633 936.633 598.462C939.008 600.292 942.311 601.633 946.539 602.486C950.181 603.22 953.318 603.112 955.95 602.161C958.581 601.211 960.69 599.719 962.276 597.686C963.863 595.653 964.905 593.402 965.403 590.932C965.968 588.127 965.943 585.66 965.327 583.532C964.71 581.403 963.662 579.58 962.182 578.061C960.743 576.551 959.028 575.334 957.036 574.41C955.044 573.485 952.939 572.799 950.72 572.352C948.543 571.913 946.386 571.914 944.249 572.354C942.155 572.803 940.21 573.588 938.416 574.707C936.655 575.877 935.145 577.315 933.886 579.022C932.669 580.737 931.845 582.662 931.415 584.798Z" fill="#FF6837"/>
<path d="M930.047 508.037C932.953 508.123 936.152 508.295 939.645 508.553C943.009 508.801 946.583 509.129 950.364 509.537C954.145 509.944 957.964 510.419 961.821 510.96C965.721 511.505 969.508 512.127 973.182 512.827C973.062 512.133 972.94 511.46 972.817 510.808C972.733 510.203 972.625 509.638 972.493 509.114L982.891 506.606C984.559 517.092 985.139 525.764 984.633 532.622C983.605 546.55 977.788 553.122 967.183 552.339C962.2 551.972 958.361 550.018 955.667 546.479C953.016 542.943 951.545 537.931 951.253 531.443C947.687 535.077 944.695 538.775 942.276 542.536C939.896 546.343 937.833 550.216 936.087 554.156L927.213 546.435C928.189 544.237 929.492 541.957 931.123 539.593C932.753 537.23 934.531 534.898 936.457 532.599C938.382 530.301 940.321 528.11 942.274 526.027C944.223 523.987 946.027 522.171 947.686 520.581C944.75 520.321 941.772 520.059 938.751 519.793C935.769 519.573 932.681 519.345 929.487 519.109L929.132 518.698C929.251 517.079 929.38 515.333 929.519 513.459C929.611 511.624 929.649 509.957 929.631 508.456L930.047 508.037ZM974.517 531.297C974.605 530.104 974.632 528.865 974.599 527.577C974.608 526.293 974.575 525.006 974.498 523.716C972.126 523.369 969.773 523.046 967.44 522.745C965.149 522.448 962.857 522.171 960.563 521.916C960.468 523.794 960.425 525.825 960.435 528.009C960.484 530.24 960.714 532.355 961.123 534.355C961.575 536.359 962.308 538.019 963.325 539.336C964.338 540.695 965.76 541.443 967.592 541.578C969.721 541.735 971.34 540.977 972.449 539.303C973.557 537.629 974.247 534.96 974.517 531.297Z" fill="#FF6837"/>
<path d="M929.431 473.95C929.231 469.94 929.796 466.256 931.126 462.897C932.412 459.541 934.297 456.603 936.78 454.085C939.263 451.567 942.137 449.585 945.4 448.139C948.663 446.694 952.151 445.879 955.862 445.694C959.274 445.524 962.648 445.869 965.984 446.729C969.362 447.587 972.447 448.995 975.238 450.951C978.072 452.905 980.379 455.441 982.159 458.56C983.942 461.721 984.942 465.498 985.161 469.892C985.388 474.456 984.797 478.462 983.386 481.911C982.019 485.357 980.088 488.233 977.594 490.538C975.101 492.843 972.238 494.61 969.007 495.84C965.775 497.07 962.432 497.771 958.977 497.943C954.839 498.149 951.012 497.72 947.495 496.655C943.979 495.59 940.884 493.991 938.212 491.858C935.583 489.722 933.508 487.131 931.988 484.086C930.468 481.04 929.616 477.661 929.431 473.95ZM940.116 473.418C940.244 475.977 940.98 478.314 942.326 480.428C943.714 482.539 945.784 484.19 948.537 485.378C951.291 486.567 954.821 487.054 959.129 486.839C962.841 486.654 965.854 485.777 968.171 484.208C970.487 482.639 972.164 480.674 973.201 478.313C974.238 475.952 974.694 473.513 974.568 470.997C974.426 468.139 973.794 465.754 972.673 463.843C971.551 461.932 970.086 460.423 968.278 459.315C966.512 458.206 964.55 457.448 962.392 457.043C960.234 456.637 958.024 456.491 955.764 456.603C953.545 456.714 951.455 457.245 949.493 458.198C947.573 459.149 945.882 460.388 944.418 461.915C943 463.482 941.89 465.248 941.09 467.212C940.333 469.174 940.008 471.243 940.116 473.418Z" fill="#FF6837"/>
<path d="M920.032 399.19C920.488 399.068 920.989 398.959 921.536 398.864C922.083 398.77 922.715 398.66 923.43 398.536C925.24 398.223 927.393 397.893 929.89 397.548C932.43 397.194 935.124 396.858 937.973 396.538C940.863 396.211 943.754 395.884 946.645 395.556C949.578 395.222 952.384 394.909 955.065 394.618C957.752 394.37 960.163 394.147 962.296 393.951C961.841 393.076 961.425 392.303 961.049 391.631L971.37 388.154C973.54 392.676 975.315 396.92 976.695 400.885C978.083 404.892 979.064 408.558 979.64 411.883C980.813 418.658 980.426 424.056 978.479 428.078C976.531 432.1 973.116 434.533 968.235 435.378C965.457 435.859 963.016 435.654 960.911 434.761C958.848 433.862 957.013 432.402 955.407 430.383C953.577 436.335 949.527 439.854 943.256 440.939C940.479 441.42 938.052 441.299 935.976 440.575C933.95 439.885 932.23 438.84 930.817 437.437C929.404 436.035 928.267 434.476 927.406 432.762C926.511 431.096 925.841 429.478 925.396 427.908C924.916 426.388 924.599 425.186 924.446 424.302C924.067 422.114 923.873 419.742 923.864 417.186C923.855 414.63 924.067 412.101 924.501 409.599C923.659 409.745 922.859 409.883 922.102 410.014L920.032 399.19ZM969.142 413.961C968.88 412.446 968.519 410.861 968.059 409.207C967.648 407.588 967.154 405.983 966.575 404.393C963.459 404.672 959.838 405.039 955.713 405.494C955.765 406.048 955.839 406.599 955.934 407.146C956.036 407.735 956.138 408.324 956.24 408.913C958.164 420.023 961.398 425.184 965.943 424.397C967.458 424.135 968.487 423.068 969.03 421.197C969.622 419.361 969.66 416.949 969.142 413.961ZM946.518 412.092C946.365 411.209 946.208 410.304 946.048 409.378C945.895 408.494 945.717 407.593 945.515 406.675C943.648 406.911 941.782 407.148 939.916 407.384C938.057 407.663 936.216 407.917 934.391 408.146C934.084 410.626 933.959 413.032 934.016 415.363C934.115 417.686 934.306 419.669 934.591 421.31C935.196 424.803 936.05 427.234 937.154 428.603C938.3 429.965 939.862 430.474 941.84 430.132C944.281 429.709 945.902 427.933 946.704 424.804C947.513 421.716 947.451 417.479 946.518 412.092Z" fill="#FF6837"/>
<path d="M907.189 354.635L906.005 343.553C914.53 343.136 922.323 343.028 929.384 343.229C936.457 343.47 942.628 344.05 947.897 344.966C953.165 345.883 957.383 347.159 960.549 348.796C963.768 350.461 965.74 352.5 966.464 354.914C967.924 359.782 964.748 365.617 956.934 372.419C949.161 379.21 937.155 386.601 920.914 394.594L916.183 384.175C918.736 382.874 921.338 381.514 923.989 380.094C926.681 378.663 929.284 377.235 931.8 375.812C931.547 374.818 931.248 373.748 930.904 372.602C930.303 370.598 929.624 368.483 928.868 366.258C928.123 364.073 927.324 361.928 926.469 359.821C925.667 357.743 924.888 355.814 924.131 354.034C921.28 354.042 918.394 354.083 915.473 354.157C912.605 354.259 909.844 354.418 907.189 354.635ZM946.411 355.177C944.219 354.853 940.748 354.579 935.998 354.354C936.73 356.052 937.432 357.87 938.103 359.809C938.814 361.736 939.452 363.64 940.017 365.522C940.495 367.117 940.915 368.664 941.275 370.161C943.189 368.962 944.885 367.852 946.362 366.829C947.851 365.847 949.004 365.011 949.823 364.32C951.774 362.798 953.101 361.575 953.805 360.65C954.55 359.714 954.818 358.897 954.609 358.202C954.388 357.466 953.676 356.877 952.474 356.435C951.312 355.981 949.291 355.561 946.411 355.177Z" fill="#FF6837"/>
<path d="M894.884 324.146C893.459 320.854 892.625 317.585 892.383 314.339C892.141 311.093 892.331 307.985 892.954 305.016C893.632 302.069 894.548 299.346 895.699 296.846L907.592 298.678C906.48 299.764 905.571 301.158 904.865 302.86C904.177 304.601 903.71 306.479 903.465 308.493C903.22 310.507 903.205 312.515 903.42 314.516C903.652 316.557 904.141 318.439 904.888 320.163C906.008 322.75 907.311 324.629 908.795 325.802C910.32 326.957 911.787 327.229 913.198 326.618C914.295 326.143 915.044 325.4 915.444 324.389C915.9 323.4 916.149 322.362 916.189 321.274C916.286 320.208 916.375 319.285 916.457 318.505C916.488 317.933 916.468 316.918 916.395 315.46C916.378 314.025 916.333 312.415 916.259 310.632C916.185 308.849 916.106 307.161 916.021 305.569C915.976 303.96 915.96 302.687 915.973 301.75C916.071 294.774 918.863 290.097 924.35 287.721C926.113 286.958 927.982 286.544 929.956 286.481C931.986 286.44 934.012 286.819 936.034 287.619C938.055 288.419 939.953 289.738 941.726 291.576C943.5 293.415 945.048 295.863 946.372 298.92C947.814 302.251 948.723 305.371 949.099 308.28C949.513 311.172 949.596 313.836 949.347 316.271C949.116 318.745 948.698 320.95 948.094 322.887L936.698 321.399C939.126 315.182 939.151 309.33 936.776 303.843C935.774 301.53 934.756 299.877 933.72 298.883C932.741 297.911 931.844 297.345 931.031 297.185C930.273 297.048 929.698 297.064 929.306 297.234C928.64 297.522 928.076 298.046 927.613 298.805C927.167 299.603 926.945 301.025 926.948 303.072C926.939 303.913 926.955 305.024 926.994 306.403C927.089 307.805 927.176 309.349 927.255 311.037C927.351 312.764 927.391 314.468 927.375 316.151C927.415 317.856 927.376 319.432 927.258 320.879C927.085 322.629 926.753 324.495 926.261 326.477C925.769 328.458 924.902 330.323 923.658 332.072C922.47 333.843 920.68 335.246 918.29 336.281C916.84 336.909 915.114 337.33 913.113 337.545C911.151 337.743 909.069 337.504 906.868 336.828C904.667 336.153 902.531 334.82 900.46 332.832C898.389 330.843 896.53 327.948 894.884 324.146Z" fill="#FF6837"/>
<path d="M865.143 265.33C863.022 261.921 861.727 258.426 861.26 254.844C860.755 251.285 860.977 247.802 861.926 244.395C862.875 240.988 864.425 237.86 866.577 235.013C868.728 232.165 871.382 229.76 874.537 227.797C877.438 225.992 880.555 224.656 883.889 223.789C887.259 222.9 890.639 222.633 894.029 222.989C897.455 223.322 900.704 224.419 903.774 226.282C906.866 228.181 909.574 230.997 911.898 234.733C914.312 238.613 915.739 242.403 916.18 246.102C916.657 249.779 916.365 253.231 915.303 256.456C914.242 259.682 912.597 262.617 910.369 265.26C908.14 267.904 905.558 270.14 902.62 271.967C899.103 274.156 895.548 275.638 891.956 276.413C888.365 277.189 884.883 277.293 881.512 276.725C878.176 276.134 875.105 274.876 872.298 272.95C869.49 271.025 867.105 268.485 865.143 265.33ZM874.227 259.679C875.58 261.854 877.358 263.54 879.56 264.735C881.799 265.908 884.41 266.345 887.394 266.048C890.378 265.751 893.701 264.463 897.364 262.185C900.519 260.222 902.728 257.992 903.992 255.496C905.256 252.999 905.768 250.468 905.529 247.9C905.289 245.333 904.504 242.979 903.173 240.84C901.662 238.41 899.952 236.632 898.044 235.505C896.136 234.379 894.122 233.77 892.004 233.68C889.921 233.567 887.838 233.857 885.755 234.55C883.671 235.243 881.668 236.187 879.746 237.383C877.86 238.556 876.291 240.035 875.037 241.821C873.821 243.584 872.943 245.488 872.404 247.533C871.925 249.592 871.812 251.674 872.066 253.78C872.356 255.863 873.076 257.829 874.227 259.679Z" fill="#FF6837"/>
<path d="M842.062 230.379C843.639 228.778 845.617 226.93 847.998 224.836C850.404 222.776 853.058 220.584 855.961 218.261C858.889 215.971 861.894 213.678 864.975 211.381C868.845 208.496 872.662 205.757 876.428 203.163C880.194 200.569 883.566 198.375 886.544 196.581L893.435 206.147C890.723 207.582 887.647 209.423 884.206 211.668C880.792 213.947 876.995 216.643 872.818 219.758C868.572 222.923 864.36 226.169 860.182 229.497C856.029 232.859 852.249 235.97 848.841 238.83L842.062 230.379Z" fill="#FF6837"/>
<path d="M820.453 203.188C817.517 199.855 815.639 196.529 814.82 193.209C813.969 189.917 813.898 186.735 814.607 183.664C815.344 180.624 816.582 177.797 818.321 175.184C820.06 172.57 822.051 170.275 824.294 168.299C826.954 165.956 829.963 164.073 833.321 162.652C836.679 161.23 840.177 160.453 843.817 160.32C847.485 160.219 851.103 160.902 854.672 162.368C858.269 163.867 861.606 166.363 864.683 169.856C867.281 172.804 869.121 175.765 870.204 178.738C871.318 181.683 871.959 184.478 872.124 187.121C872.35 189.768 872.358 192.038 872.147 193.931L860.364 193.639C860.631 191.81 860.778 189.974 860.804 188.129C860.858 186.317 860.566 184.468 859.929 182.582C859.292 180.696 858.084 178.743 856.305 176.724C854.386 174.545 852.333 173.023 850.149 172.159C847.996 171.266 845.826 170.902 843.637 171.066C841.447 171.23 839.324 171.792 837.266 172.751C835.237 173.742 833.357 175 831.626 176.525C829.575 178.332 827.981 180.334 826.843 182.531C825.734 184.761 825.257 187.03 825.414 189.34C825.599 191.682 826.608 193.894 828.444 195.977C830.702 198.541 833.158 200.134 835.812 200.755C838.466 201.377 841.181 201.034 843.957 199.727C842.647 198.434 841.347 197.217 840.057 196.076C838.828 194.94 837.696 193.945 836.66 193.093L843.727 185.415C845.81 186.939 848.034 188.85 850.4 191.148C852.827 193.45 855.042 195.738 857.047 198.014C859.813 201.154 861.696 203.679 862.695 205.588L854.642 212.341C854.242 211.499 853.44 210.298 852.238 208.739C851.533 209.36 850.796 210.01 850.026 210.687C849.286 211.397 848.515 212.105 847.713 212.81C845.502 214.758 843.295 216.646 841.091 218.474C838.888 220.301 837.117 221.747 835.779 222.813L828.729 214.423C829.174 214.089 829.857 213.572 830.779 212.874C831.729 212.208 832.791 211.443 833.965 210.579C831.852 210.506 829.65 209.912 827.36 208.799C825.098 207.718 822.796 205.848 820.453 203.188Z" fill="#FF6837"/>
<path d="M783.565 168.806C780.5 166.083 778.402 163.333 777.27 160.556C776.109 157.811 775.674 155.053 775.965 152.283C776.316 149.51 777.18 146.736 778.56 143.962C779.971 141.217 781.715 138.482 783.793 135.758C785.903 133.062 788.121 130.405 790.447 127.787C793.086 124.818 795.749 122.014 798.437 119.374C801.153 116.703 803.474 114.509 805.4 112.792L813.743 121.149C811.353 123.196 809.24 125.06 807.403 126.741C805.626 128.419 803.982 130.044 802.472 131.615C800.961 133.187 799.44 134.834 797.908 136.558C796.716 137.899 795.441 139.366 794.083 140.959C792.785 142.548 791.567 144.208 790.429 145.939C789.351 147.667 788.515 149.38 787.919 151.079C787.384 152.774 787.255 154.431 787.531 156.048C787.869 157.662 788.804 159.149 790.336 160.511C791.996 161.986 793.663 162.811 795.337 162.984C797.072 163.154 798.779 162.872 800.46 162.137C802.17 161.371 803.833 160.335 805.45 159.029C807.096 157.692 808.644 156.239 810.094 154.671C811.605 153.1 812.998 151.596 814.275 150.159C816.686 147.446 818.947 144.741 821.057 142.045C823.167 139.349 825.37 136.451 827.668 133.351L837.075 140.51C834.607 143.802 832.302 146.782 830.161 149.449C828.047 152.085 826.04 154.472 824.139 156.611C821.558 159.516 818.964 162.21 816.357 164.694C813.783 167.205 811.169 169.311 808.517 171.01C805.892 172.677 803.222 173.818 800.505 174.432C797.817 175.014 795.056 174.875 792.221 174.013C789.419 173.18 786.534 171.445 783.565 168.806Z" fill="#FF6837"/>
<path d="M725.654 123.9C725.815 123.596 726.037 123.204 726.32 122.725C726.639 122.27 727.006 121.745 727.422 121.15C728.425 119.715 729.684 117.989 731.198 115.973C732.772 113.947 734.486 111.758 736.339 109.406C738.217 107.019 740.124 104.626 742.062 102.229C744.024 99.7963 745.912 97.4688 747.727 95.2462C749.601 93.0132 751.275 91.0304 752.747 89.2979C752.138 88.9762 751.547 88.6668 750.973 88.3697L756.059 78.6373C760.042 80.6929 764.154 83.0477 768.396 85.7015C772.672 88.3798 776.771 91.0896 780.69 93.8311C783.63 95.8871 786.399 97.9276 788.996 99.9523C791.652 101.966 793.992 103.837 796.015 105.565L789.133 113.729C787.743 112.288 786.053 110.793 784.061 109.244C782.094 107.66 779.921 106.035 777.541 104.371C775.091 102.657 772.504 100.953 769.782 99.2571C767.118 97.5508 764.501 95.9284 761.928 94.39C760.809 95.6921 759.653 97.0466 758.461 98.4536C757.303 99.8852 756.109 101.369 754.878 102.906C756.869 103.933 759.004 105.166 761.283 106.603C763.596 108.065 765.855 109.566 768.06 111.108C770.58 112.871 772.893 114.593 775 116.275C777.142 117.981 778.686 119.426 779.631 120.608L773.09 128.62C770.836 126.626 768.678 124.83 766.617 123.232C764.58 121.599 762.546 120.073 760.516 118.653C756.561 115.887 752.475 113.421 748.258 111.253C745.478 114.781 742.856 118.159 740.39 121.386C737.96 124.637 735.914 127.376 734.253 129.602L725.654 123.9Z" fill="#FF6837"/>
<path d="M699.049 109.42C696.19 107.884 693.724 106.292 691.651 104.646C689.596 103.057 688.081 101.274 687.107 99.2962C686.113 97.3563 685.778 95.0917 686.102 92.5025C686.427 89.9133 687.518 86.888 689.378 83.4266C690.732 80.9058 692.268 78.3616 693.987 75.7942C695.705 73.2267 697.43 70.7836 699.16 68.4649C700.948 66.1288 702.566 64.0647 704.013 62.2727C703.2 61.9814 702.5 61.7507 701.912 61.5806L705.66 52.0313C707.686 52.683 709.963 53.5427 712.492 54.6104C715.079 55.6607 717.778 56.8193 720.588 58.0863C723.436 59.3736 726.234 60.7071 728.983 62.087C731.753 63.4293 734.323 64.737 736.693 66.0103C738.574 67.0208 740.266 67.978 741.768 68.8818C743.328 69.7683 744.586 70.5408 745.541 71.1993L740.027 80.3817C739.112 79.6479 737.81 78.7785 736.119 77.7736C734.449 76.731 732.542 75.6338 730.397 74.4818C727.877 73.1277 725.156 71.7391 722.236 70.316C719.316 68.8929 716.517 67.5594 713.841 66.3154C712.691 67.7339 711.558 69.2102 710.443 70.7444C709.328 72.2786 708.242 73.8041 707.185 75.3209C709.529 76.1921 712.039 77.2497 714.716 78.4937C717.451 79.7203 720.137 80.9933 722.773 82.3125C725.43 83.5941 727.793 84.7907 729.862 85.9023C731.066 86.549 732.128 87.1438 733.049 87.6867C733.989 88.192 734.74 88.6439 735.302 89.0425L730.104 98.1768C729.636 97.8764 728.968 97.4938 728.103 97.029C727.296 96.5468 726.327 96.0025 725.199 95.3962C723.581 94.5271 721.755 93.5947 719.72 92.5988C717.706 91.5652 715.596 90.5289 713.391 89.4898C711.244 88.4333 709.132 87.4447 707.058 86.5241C705.003 85.5658 703.116 84.7462 701.397 84.0653C700.115 86.0914 699.13 87.7441 698.443 89.0233C697.453 90.8669 696.97 92.3527 696.994 93.4808C697.018 94.6089 697.524 95.6078 698.511 96.4774C699.556 97.3297 701.02 98.2611 702.901 99.2716C706.249 101.07 709.994 102.718 714.135 104.215C718.313 105.733 722.607 106.9 727.016 107.717L722.362 117.87C717.18 116.687 712.635 115.311 708.725 113.745C704.833 112.236 701.608 110.794 699.049 109.42Z" fill="#FF6837"/>
<path d="M634.704 80.6763C635.642 77.9251 636.75 74.9188 638.026 71.6574C639.255 68.5153 640.622 65.1978 642.126 61.7047C643.63 58.2116 645.21 54.702 646.865 51.1761C648.535 47.6103 650.246 44.1752 651.997 40.8705C651.299 40.7806 650.62 40.6985 649.961 40.6242C649.358 40.5257 648.786 40.4626 648.247 40.4349L648.915 29.7587C659.427 31.2574 667.885 33.2594 674.288 35.7648C687.294 40.8532 691.86 48.3492 687.985 58.2526C686.164 62.9061 683.166 65.9981 678.99 67.5286C674.83 69.0194 669.606 68.9479 663.321 67.3141C665.742 71.7927 668.393 75.7421 671.274 79.1623C674.21 82.5584 677.303 85.6717 680.553 88.5023L670.559 94.7046C668.747 93.1242 666.952 91.2066 665.174 88.9518C663.396 86.6969 661.693 84.3107 660.064 81.793C658.434 79.2754 656.913 76.7767 655.498 74.2971C654.123 71.833 652.92 69.5738 651.89 67.5196C650.776 70.2483 649.647 73.0169 648.503 75.8252C647.413 78.6093 646.285 81.4928 645.118 84.4758L644.62 84.6937C643.109 84.1024 641.478 83.4644 639.728 82.7797C638.002 82.1503 636.42 81.623 634.981 81.1977L634.704 80.6763ZM670.04 45.0405C668.927 44.6048 667.75 44.2132 666.51 43.8657C665.286 43.4784 664.046 43.1309 662.79 42.8232C661.76 44.9882 660.757 47.1411 659.782 49.2819C658.822 51.383 657.882 53.4918 656.963 55.6084C658.728 56.2534 660.656 56.8931 662.747 57.5276C664.893 58.1379 666.982 58.5424 669.014 58.7412C671.061 58.9002 672.864 58.6883 674.422 58.1054C676.02 57.5382 677.153 56.3994 677.822 54.6892C678.6 52.7006 678.353 50.9299 677.08 49.3771C675.807 47.8243 673.461 46.3788 670.04 45.0405Z" fill="#FF6837"/>
<path d="M591.564 69.3066C587.567 68.3953 584.404 66.9952 582.074 65.1063C579.736 63.259 578.027 61.0515 576.948 58.4839C575.92 55.8841 575.342 53.0366 575.216 49.9414C575.131 46.8557 575.343 43.6188 575.853 40.2306C576.404 36.8519 577.069 33.4553 577.847 30.0408C578.73 26.1683 579.714 22.4283 580.799 18.8209C581.894 15.1719 582.872 12.1314 583.733 9.69942L595.069 13.0065C593.959 15.9513 593.005 18.6028 592.204 20.961C591.455 23.287 590.796 25.5024 590.229 27.6071C589.662 29.7117 589.122 31.8883 588.609 34.1369C588.21 35.8858 587.799 37.7852 587.376 39.8351C587.003 41.8528 586.735 43.8942 586.571 45.9594C586.458 47.9924 586.549 49.8969 586.845 51.6727C587.192 53.4165 587.877 54.9304 588.898 56.2145C589.971 57.4665 591.506 58.3204 593.505 58.776C595.67 59.2697 597.528 59.1895 599.079 58.5355C600.681 57.8494 602.042 56.7798 603.162 55.3267C604.291 53.832 605.25 52.1232 606.039 50.2005C606.837 48.236 607.494 46.2175 608.011 44.145C608.578 42.0404 609.075 40.0511 609.503 38.1773C610.309 34.6379 610.988 31.1788 611.54 27.8001C612.091 24.4215 612.627 20.8203 613.148 16.9968L624.84 18.7424C624.262 22.8158 623.677 26.5371 623.084 29.9063C622.5 33.2338 621.891 36.2925 621.255 39.0824C620.391 42.8717 619.415 46.482 618.326 49.9133C617.278 53.3542 616.001 56.4579 614.495 59.2245C612.997 61.9494 611.206 64.235 609.12 66.0812C607.044 67.8858 604.557 69.0928 601.659 69.7023C598.802 70.3213 595.437 70.1894 591.564 69.3066Z" fill="#FF6837"/>
<path d="M540.103 60.4169C536.876 60.0668 533.993 59.5176 531.454 58.7696C528.952 58.0685 526.879 56.9844 525.234 55.5171C523.584 54.0923 522.423 52.1191 521.752 49.5975C521.08 47.076 520.957 43.8621 521.381 39.9558C521.689 37.111 522.158 34.1762 522.787 31.1514C523.416 28.1266 524.097 25.2148 524.83 22.4161C525.611 19.5796 526.335 17.0591 527.004 14.8549C526.141 14.8901 525.405 14.9391 524.797 15.002L524.686 4.74416C526.808 4.58777 529.241 4.52964 531.986 4.56974C534.778 4.572 537.715 4.63284 540.795 4.75226C543.917 4.87629 547.012 5.0617 550.078 5.3085C553.149 5.51284 556.022 5.76014 558.697 6.0504C560.82 6.28076 562.747 6.53284 564.479 6.80666C566.257 7.04262 567.713 7.28649 568.845 7.53827L567.182 18.1191C566.059 17.7824 564.525 17.4656 562.581 17.1687C560.642 16.8294 558.462 16.5285 556.042 16.2659C553.197 15.9572 550.154 15.6914 546.913 15.4687C543.673 15.2459 540.578 15.0605 537.63 14.9124C537.097 16.6589 536.602 18.4524 536.144 20.2929C535.687 22.1335 535.253 23.9552 534.842 25.7579C537.342 25.6854 540.066 25.7232 543.014 25.8713C546.009 25.9815 548.976 26.1531 551.915 26.3861C554.858 26.5766 557.498 26.7985 559.833 27.0519C561.192 27.1994 562.4 27.3519 563.456 27.5095C564.518 27.6247 565.384 27.7616 566.054 27.9203L564.666 38.3376C564.118 38.2353 563.356 38.1311 562.38 38.0252C561.45 37.8813 560.349 37.7403 559.075 37.6021C557.249 37.404 555.207 37.2253 552.947 37.066C550.692 36.8643 548.348 36.6958 545.914 36.5606C543.527 36.3875 541.199 36.2638 538.93 36.1895C536.666 36.0727 534.609 36.0213 532.761 36.0355C532.333 38.3948 532.04 40.2963 531.884 41.7399C531.658 43.8204 531.768 45.3789 532.214 46.4154C532.66 47.4518 533.504 48.1878 534.745 48.6232C536.034 49.0208 537.74 49.3347 539.863 49.5651C543.642 49.9752 547.731 50.0967 552.131 49.9297C556.574 49.7674 560.991 49.2372 565.385 48.3393L564.883 59.4972C559.636 60.3455 554.906 60.7774 550.695 60.7929C546.521 60.8555 542.99 60.7302 540.103 60.4169Z" fill="#FF6837"/>
<path d="M494.168 58.1922C490.58 58.2091 487.246 57.6909 484.166 56.6377C481.086 55.5844 478.304 54.1881 475.818 52.4488C473.376 50.6665 471.231 48.7547 469.385 46.7133L475.743 36.4973C476.305 37.9467 477.23 39.3304 478.518 40.6484C479.848 41.9661 481.391 43.1333 483.147 44.1501C484.903 45.1668 486.743 45.9696 488.668 46.5585C490.635 47.1472 492.558 47.4371 494.437 47.4282C497.256 47.415 499.496 46.956 501.158 46.0513C502.819 45.1039 503.646 43.8614 503.639 42.3239C503.633 41.1281 503.244 40.1476 502.472 39.3825C501.742 38.5744 500.884 37.9378 499.9 37.4727C498.958 36.9646 498.144 36.52 497.459 36.1388C496.946 35.885 496.004 35.505 494.635 34.999C493.309 34.45 491.811 33.8591 490.142 33.2263C488.474 32.5935 486.891 32.0031 485.393 31.4549C483.896 30.864 482.719 30.3784 481.863 29.998C475.486 27.1665 472.283 22.7612 472.255 16.7821C472.246 14.8602 472.6 12.9794 473.318 11.1395C474.078 9.25671 475.223 7.54295 476.753 5.99823C478.283 4.4535 480.242 3.22707 482.63 2.31895C485.017 1.41082 487.876 0.948922 491.208 0.933246C494.838 0.916163 498.064 1.30672 500.887 2.10491C503.709 2.86039 506.191 3.83102 508.332 5.0168C510.516 6.20238 512.379 7.45352 513.923 8.77024L508.076 18.6636C503.313 13.988 497.942 11.6642 491.963 11.6924C489.443 11.7042 487.523 11.9909 486.201 12.5523C484.922 13.0708 484.05 13.6729 483.583 14.3584C483.159 15.0011 482.948 15.5359 482.95 15.963C482.953 16.689 483.213 17.4139 483.729 18.1375C484.288 18.8609 485.508 19.6239 487.391 20.4265C488.162 20.7646 489.189 21.1869 490.472 21.6933C491.799 22.1569 493.253 22.6839 494.836 23.2744C496.462 23.8647 498.045 24.4978 499.586 25.1739C501.169 25.8071 502.603 26.4624 503.887 27.1397C505.429 27.9866 507.014 29.0255 508.643 30.2564C510.271 31.4873 511.645 33.0184 512.764 34.8496C513.926 36.6379 514.513 38.8347 514.525 41.4399C514.533 43.0201 514.242 44.7725 513.653 46.6972C513.064 48.5792 512.026 50.3992 510.54 52.1572C509.053 53.9153 506.988 55.3558 504.346 56.4787C501.703 57.6015 498.31 58.1727 494.168 58.1922Z" fill="#FF6837"/>
</svg>
